<?xml version="1.0" encoding="UTF-8"?> <svg xmlns="http://www.w3.org/2000/svg" width="22" height="22" viewBox="0 0 22 22" fill="none"><g clip-path="url(#clip0_11913_1121)"><path d="M19.7096 14.7205C19.7096 17.3005 17.6096 19.4005 15.0296 19.4005H6.99957C4.41957 19.4005 2.31957 17.3005 2.31957 14.7205V6.69049C2.31957 4.11049 4.41957 2.01049 6.99957 2.01049H15.0296C17.6096 2.01049 19.7096 4.11049 19.7096 6.69049V14.7205ZM15.0296 0.000488281H6.99957C3.30957 0.000488281 0.30957 3.00049 0.30957 6.69049V14.7205C0.30957 18.4105 3.30957 21.4105 6.99957 21.4105H15.0296C18.7196 21.4105 21.7196 18.4105 21.7196 14.7205V6.69049C21.7196 3.00049 18.7196 0.000488281 15.0296 0.000488281Z" fill="white"></path><path d="M11.0199 14.0506C9.17992 14.0506 7.66992 12.5506 7.66992 10.7106C7.66992 8.87059 9.16992 7.36059 11.0199 7.36059C12.8699 7.36059 14.3599 8.86059 14.3599 10.7106C14.3599 12.5606 12.8599 14.0506 11.0199 14.0506ZM11.0199 5.35059C8.05992 5.35059 5.66992 7.75059 5.66992 10.7006C5.66992 13.6506 8.06992 16.0506 11.0199 16.0506C13.9699 16.0506 16.3699 13.6506 16.3699 10.7006C16.3699 7.75059 13.9699 5.35059 11.0199 5.35059Z" fill="white"></path><path d="M17.4796 4.95072C17.4796 5.34072 17.1596 5.66072 16.7696 5.66072C16.3796 5.66072 16.0596 5.34072 16.0596 4.95072C16.0596 4.56072 16.3796 4.24072 16.7696 4.24072C17.1596 4.24072 17.4796 4.56072 17.4796 4.95072Z" fill="white"></path></g><defs><clipPath id="clip0_11913_1121"><rect width="21.41" height="21.41" fill="white" transform="translate(0.30957 0.000488281)"></rect></clipPath></defs></svg> 