<?xml version="1.0" encoding="UTF-8"?> <svg xmlns="http://www.w3.org/2000/svg" version="1.1" viewBox="0 0 2048 975" width="1280" height="1280"><path transform="translate(0)" d="m0 0h2048v975h-2048z" fill="#FDFDFD"></path><path transform="translate(1641,74)" d="m0 0 11 1 13 5 9 7 6 8 5 11 1 6v11l-3 19-6 21-8 20-12 24-14 23-11 16-14 19-11 14-12 14-7 8-12 14-9 9-7 8-25 25-8 7-14 13-11 9-14 12-14 11-21 16-12 9-8 16-8 20-7 23-5 24v21l4 11 5 6 10 4h13l16-5 16-8 16-10 14-10 16-13 10-9 8-7 7-7 8-7 22-24 7-9 12-28 10-19 8-11 6-7 10-7 8-3h17l10 4 6 5 4 7 1 9-3 10-10 16-8 11-12 21-11 24-13 33-9 27-1 8 1 2 9-3 11-7 15-14 20-20 7-8 13-15 9-11 12-15 15-20 13-18 13-19 9-11 13-8 15-7 10-3h14l9 4 6 7 1 3v18l-3 17-11 44-11 65-12 60-10 43-11 40-15 46-12 30-13 28-13 24-16 24-10 13-11 12-8 9-8 7-10 8-18 12-16 8-17 7-19 5-22 3h-31l-19-4-15-6-12-7-12-11-8-11-4-10-1-4v-16l4-11 7-9 9-6 7-2h9l9 3 6 4 5 6 2 5 2 16 4 8 5 4 8 3h22l16-4 16-7 12-8 11-9 6-6h2v-2h2l2-4 10-11 10-14 11-17 10-18 10-19 13-30 11-29 14-43 9-32 11-47 8-40 5-32-11 14-13 15-9 10-12 13-16 16-8 7-14 12-18 13-18 10-16 6-11 2h-13l-12-4-10-7-7-9-4-10-1-4v-21l1-9-14 12-16 12-19 13-15 9-23 11-21 6-5 1h-19l-14-3-14-5-12-7-13-12-7-11-5-10-3-11-1-6v-10l-10 8-16 13-18 13-15 10-15 9-17 9-19 7-14 3h-15l-13-4-11-7-8-9-7-15-3-20-10 9-11 9-13 10-15 10-14 8-18 7-10 2h-18l-14-4-11-7-8-10-5-10-3-12v-29l4-22 8-30 8-31 1-13-8 1-10 5-12 9-14 12-18 18-7 8-9 10-22 28-12 17-9 15-11 23-7 10-4 5-8 5-3 1h-12l-9-4-8-6-5-8-2-6v-11l8-22 9-23 19-56 7-25 1-5v-11l-4-1h-7l-12 5-18 10-15 11-10 8-14 12-9 9-9 11-10 13-12 19-14 26-15 30-7 15-7 13-7 6-3 1h-11l-9-4-5-5-4-5-3-6-1-5v-7l4-16 8-23-17 13-18 13-15 9-17 9-16 6-12 3-8 1h-10l-15-3-12-6-10-9-6-10-3-9-1-6v-30l-20 18-11 9-17 14-11 8-18 12-16 9-17 8-14 4-6 1h-11l-10-4-8-6-8-8-5-10-3-11v-15l3-20 6-20 8-18 10-18 10-14 9-11 11-12 13-13-28 1-41 3-10 21-15 34-16 40-11 30-13 38-10 36-7 30-4 26v24l5 15v15l-6 12-7 6-7 3-11 1-13-4-8-7-5-9-3-11v-32l4-30 5-26 9-38 10-35 13-41 13-37 12-31 10-24 1-4h-9l-9-3-6-5-2-5v-14l4-11 8-7 6-3 5-1 28-1 26-53 13-26 12-22 15-27 17-28 7-12 9-13 12-16 9-11 12-14 26-26 11-9 17-13 19-12 16-8 13-5 14-3h22l15 3 16 8 6 5 6 9 2 7v10l-2 9-5 10-6 7-10 6-4 1h-13l-9-4-6-8-2-11-7-1-10 3-15 8-12 9-11 9-13 12-7 7-9 11-8 9-12 16-14 21-14 22-13 22-14 25-14 26-20 39-4 9h103l6 1 20-8 21-6 13-2h17l12 3 10 5 13 10 7-6 9-7 7-3h14l10 3 9 6 5 7 2 7v8l-5 12-11 18-11 15-11 16-8 13-8 15-8 20-3 11v15l3 6 2 2h9l14-5 13-7 14-10 16-13 12-11 10-9 22-22 7-8 12-13 4-6 16-44 10-28 7-14 9-11 10-6 4-1h9l13 4 8 8 2 6v16l-5 16-12 30v3l10-9 13-10 10-7 18-11 16-8 13-4h18l16 4 16 8 8 8 5 10 1 4v17l-2 18 9-9 11-9 17-13 21-13 19-9 16-5 6-1h13l14 4 11 7 7 8 4 10 1 11-2 18-6 23-14 43-5 22-1 10v10l3 7h10l10-4 14-8 14-11 13-12 8-7 8-8 2-3h2l2-4 10-10 9-11 9-10 11-14 11-12 15-28 12-20 11-14 8-7 10-4h10l10 3 6 4 5 6 2 5v13l-4 10-13 19-9 15-10 18-8 15-13 29-8 21-4 15v8l2 6 4 1h8l11-4 16-9 14-10 13-10 15-13 12-11 8-7 17-17 7-8 5-6 9-29 11-31 12-29 13-30 20-41 15-29 9-16 14-24 15-24 18-27 13-18 10-13 9-11 9-10 7-8 10-10 11-9 14-10 12-7 18-7 15-3z" fill="#FA762F"></path><path transform="translate(1222,630)" d="m0 0h82l16 3 13 5 12 7 10 9 8 10 6 13 3 13v13l-4 15-6 10-8 9-11 7-7 3 3 2 12 6 12 11 7 10 4 10 2 12v9l-3 14-8 16-11 12-11 8-12 6-13 4-14 2h-82l-9-4-6-5-3-6-1-5v-195l1-10 4-6 7-6z" fill="#75C697"></path><path transform="translate(482,627)" d="m0 0h33l22 4 21 7 16 8 14 9 14 12 4 7v12l-5 8-9 5-4 1h-8l-10-4-11-9-13-9-16-7-17-4-16-1-19 2-17 5-17 9-10 8-9 9-9 14-6 16-2 10v21l5 19 7 13 7 9 5 6 13 10 16 8 16 5 15 2h13l19-3 16-6 13-7 11-9 9-6 8-3 10 1 8 4 6 7 1 2v12l-4 7-8 8-15 11-19 10-24 8-25 4h-25l-21-3-15-4-16-6-15-8-14-10-12-11-10-11-9-14-8-17-4-14-2-12v-25l3-17 7-19 9-16 9-11 6-7h2v-2l11-9 15-10 21-10 21-6z" fill="#75C697"></path><path transform="translate(921,627)" d="m0 0h12l7 3 7 6 3 7 1 146 3 12 5 10 5 6v2l4 2 11 7 12 4 6 1h18l16-4 11-6 9-8 7-12 3-10 1-7 1-144 3-6 8-7 5-2h13l10 5 4 5 2 4 1 6v134l-2 18-6 18-6 11-10 13-11 10-14 9-15 6-14 4-14 2h-22l-19-3-17-6-13-7-10-7-12-12-7-10-7-14-4-14-2-13v-142l3-7 5-6z" fill="#75C697"></path><path transform="translate(926,178)" d="m0 0 14 1 15 4 14 7 12 11 7 9 7 15 3 16v10l-3 15-5 12-7 11-9 9-11 7-11 5-13 3h-22l-16-4-12-6-9-7-9-9-8-14-4-13-1-7v-15l3-14 4-9 7-11 12-12 14-8 13-4z" fill="#6D0D0D"></path><path transform="translate(712,627)" d="m0 0h13l8 4 6 7 2 5v188h87l7 3 5 5 3 5v11l-4 7-9 6-4 1h-112l-10-4-7-8-2-5v-208l3-8 7-6z" fill="#75C697"></path><path transform="translate(702,178)" d="m0 0 18 2 10 4 10 9 2 2 8-8 12-6 7-2 13-1 13 2 11 4 11 8 7 10 4 10 1 4v91l-5 5-2 1h-7l-5-3-2-3-1-5-1-84-6-12-7-5-6-2h-14l-10 5-5 6-4 11-1 85-5 6-9 1-5-3-3-5-1-85-4-11-8-7-7-3h-14l-10 5-3 1-2 4-4 10-1 86-4 6-4 2-9-1-5-6v-88l4-13 6-10 8-8 12-6 8-2z" fill="#6E0E0D"></path><path transform="translate(1250,667)" d="m0 0 47 1 11 4 6 4 7 8 3 7v16l-5 9-4 5-10 6-10 3-18 1-10 5-4 6-1 10 4 8 5 4 10 3 20 1 11 4 9 7 6 10 1 3v15l-5 10-7 7-10 5-11 2h-45l-1-1v-162z" fill="#FEFEFE"></path><path transform="translate(1621,128)" d="m0 0h7l2 2-1 12-5 15-10 20-12 20-15 22-16 21-11 14-9 11-11 13-9 10-7 8-14 15-30 30-11 9-4 3 3-10 7-17 12-25 15-29 16-27 13-21 13-19 12-16 13-16 9-10 7-8 13-12 13-10z" fill="#FEFEFE"></path><path transform="translate(1170,178)" d="m0 0 15 1 15 4 13 7 8 7 1 2v8l-9 11-10 11-9 11-11 12-9 11-6 5h-8l-4-2-3-7 2-7 7-7 7-8 12-14 11-12 4-5-6-4-10-3h-16l-10 3-11 6-8 8-6 10-4 16v8l4 16 7 11 9 8 12 6 8 2h14l13-4 10-6 9-8 8-1 6 3 2 3v8l-7 8-9 7-12 6-16 4h-22l-13-3-16-8-10-8-7-8-8-14-4-14-1-7v-10l3-15 4-10 6-10 9-10 9-7 12-6 15-4z" fill="#6E0D0D"></path><path transform="translate(920,198)" d="m0 0h16l15 5 9 7 7 7 7 14 2 11v8l-4 16-7 11-7 7-12 7-11 3h-14l-13-4-10-6-9-9-8-16-1-5v-16l4-13 7-11 9-8 12-6z" fill="#FEFEFE"></path><path transform="translate(548,421)" d="m0 0 9 1 6 3 5 5 1 7-6 9-9 10-19 19-8 7-14 12-13 11-30 23-17 12-13 8-4 2-6-1-1-1v-7l4-14 10-19 10-14 9-11 11-12 16-16 11-9 15-11 12-7 16-6z" fill="#FEFEFE"></path><path transform="translate(1307,250)" d="m0 0h16l8 4 7 8 3 10v16l-3 10-6 9-9 9-16 8h-13l-8-5-6-9-4-13v-16l4-11 7-9 9-7z" fill="#FA762F"></path><path transform="translate(1080,178)" d="m0 0 6 1 5 4 1 2v6l-5 6-17 3-9 5-7 8-3 8-1 6-1 78-3 5-5 3-9-1-5-6v-81l3-13 6-12 9-10 10-6 10-4z" fill="#6C0C0C"></path></svg> 