<?xml version="1.0" encoding="UTF-8"?> <svg xmlns="http://www.w3.org/2000/svg" id="Ebene_1" data-name="Ebene 1" version="1.1" viewBox="0 0 299.95 232.58"><defs><style> .cls-1 { fill: #000; } .cls-1, .cls-2, .cls-3 { stroke-width: 0px; } .cls-2 { fill: #ff0001; } .cls-3 { fill: #fb0; } </style></defs><g><path class="cls-1" d="M52.45,133.02c.19-.31.52-.4.83-.26l3.28,1.44c.26.09.38.47.21.71-1.68,2.88-4.86,4.79-8.45,4.79-5.31,0-9.77-4.3-9.77-9.56s4.46-9.56,9.77-9.56c3.59,0,6.73,1.91,8.43,4.75.14.24.05.61-.21.73l-3.26,1.44c-.31.17-.64.07-.83-.24-.9-1.27-2.41-2.12-4.13-2.12-2.76,0-5,2.22-5,5s2.24,5,5,5c1.75,0,3.23-.85,4.13-2.12Z"></path><path class="cls-1" d="M63.73,121.45c.12-.31.45-.52.78-.52h3.54c.33,0,.66.21.78.52l7.01,17.37c.09.24-.07.52-.35.52h-4.01c-.33,0-.64-.21-.76-.52l-.66-1.72c-.09-.26-.35-.45-.64-.45h-6.3c-.28,0-.54.19-.64.45l-.66,1.72c-.12.31-.42.52-.76.52h-4.01c-.28,0-.45-.28-.35-.52l7.03-17.37ZM67.82,132.38c.24,0,.38-.24.31-.45l-1.68-4.51c-.05-.17-.28-.17-.33,0l-1.7,4.51c-.07.21.07.45.31.45h3.09Z"></path><path class="cls-1" d="M77.47,121.5c0-.31.26-.57.57-.57h8.43c4.72,0,6.89,3.07,6.89,6.73,0,2.43-1.02,4.7-3.21,5.9-.24.12-.28.4-.14.61l3.38,4.7c.14.21,0,.47-.24.47h-4.51c-.35,0-.68-.19-.9-.47l-2.88-4.08c-.17-.24-.47-.38-.76-.38h-1.46c-.26,0-.47.21-.47.47v3.89c0,.31-.26.57-.57.57h-3.56c-.31,0-.57-.26-.57-.57v-17.28ZM86.2,125.23h-3.56c-.26,0-.47.21-.47.47v3.97c0,.26.21.47.47.47h3.56c1.89,0,2.6-1.16,2.6-2.43,0-1.42-.71-2.48-2.6-2.48Z"></path><path class="cls-1" d="M96.11,139.35c-.31,0-.57-.26-.57-.57v-17.28c0-.31.26-.57.57-.57h7.98c5.76,0,8.71,4.2,8.71,9.21s-2.95,9.21-8.71,9.21h-7.98ZM103.73,125.51h-3c-.26,0-.47.21-.47.47v8.33c0,.26.21.47.47.47h3c2.81,0,4.3-1.89,4.3-4.65s-1.49-4.63-4.3-4.63Z"></path></g><g><path class="cls-3" d="M41.43,117.4c-.53,0-.98-.45-.98-.98v-29.86c0-.53.45-.98.98-.98h21.66c.53,0,.98.45.98.98v5.96c0,.53-.45.98-.98.98h-13.7c-.45,0-.82.37-.82.82v4c0,.45.37.82.82.82h11.22c.53,0,.98.45.98.98v5.42c0,.53-.45.98-.98.98h-11.22c-.45,0-.82.37-.82.82v9.1c0,.53-.45.98-.98.98h-6.16Z"></path><path class="cls-3" d="M78.34,86.48c.2-.53.77-.9,1.35-.9h6.12c.57,0,1.14.37,1.35.9l12.11,30.02c.16.41-.12.9-.61.9h-6.93c-.57,0-1.1-.37-1.31-.9l-1.14-2.98c-.16-.45-.61-.78-1.1-.78h-10.89c-.49,0-.94.33-1.1.78l-1.14,2.98c-.2.53-.73.9-1.31.9h-6.93c-.49,0-.77-.49-.61-.9l12.15-30.02ZM85.4,105.37c.41,0,.65-.41.53-.77l-2.9-7.79c-.08-.29-.49-.29-.57,0l-2.94,7.79c-.12.37.12.77.53.77h5.34Z"></path><path class="cls-3" d="M114.23,116.42c0,.53-.45.98-.98.98h-6.16c-.53,0-.98-.45-.98-.98v-29.86c0-.53.45-.98.98-.98h6.24c.57,0,1.14.37,1.43.86l8.36,16.64c.16.33.57.33.73,0l8.4-16.64c.29-.49.86-.86,1.43-.86h6.24c.53,0,.98.45.98.98v29.86c0,.53-.45.98-.98.98h-6.16c-.53,0-.98-.45-.98-.98v-14.52c0-.2-.29-.29-.37-.08l-5.79,11.62c-.29.49-.86.86-1.43.86h-3.39c-.57,0-1.14-.37-1.43-.86l-5.79-11.62c-.08-.2-.37-.12-.37.08v14.52Z"></path><path class="cls-3" d="M149.87,86.56c0-.53.45-.98.98-.98h6.2c.53,0,.98.45.98.98v29.86c0,.53-.45.98-.98.98h-6.2c-.53,0-.98-.45-.98-.98v-29.86Z"></path><path class="cls-3" d="M167.98,117.4c-.53,0-.98-.45-.98-.98v-29.86c0-.53.45-.98.98-.98h6.16c.53,0,.98.45.98.98v22.15c0,.45.37.82.82.82h13.46c.53,0,.98.45.98.98v5.91c0,.53-.45.98-.98.98h-21.41Z"></path><path class="cls-3" d="M195.59,85.58c.61,0,1.18.33,1.47.86l6.12,9.99c.16.33.65.33.82,0l6.12-10.03c.33-.49.9-.82,1.51-.82h7.67c.45,0,.69.45.45.82l-11.62,18.64c-.29.41-.45,1.02-.45,1.51v9.87c0,.53-.45.98-.98.98h-6.16c-.53,0-.98-.45-.98-.98v-9.87c0-.49-.16-1.1-.45-1.51l-11.58-18.64c-.25-.37,0-.82.45-.82h7.63Z"></path></g><g><path class="cls-2" d="M41.01,81.92c-.23,0-.41-.18-.41-.41v-16.87c0-.23.18-.41.41-.41h7.57c3.42,0,5.19,2.13,5.19,4.56,0,1.72-.93,3.2-2.38,3.95-.11.07-.11.2,0,.23,1.93.7,3.11,2.31,3.11,4.24,0,2.54-2.02,4.72-5.15,4.72h-8.34ZM48.52,65.5h-6.26c-.18,0-.32.14-.32.32v6.26c0,.18.14.32.32.32h6.62c2.15,0,3.54-1.66,3.54-3.47s-1.31-3.42-3.9-3.42ZM49.24,73.53h-6.98c-.18,0-.32.14-.32.32v6.51c0,.18.14.32.32.32h6.98c2.43,0,3.9-1.72,3.9-3.61s-1.47-3.54-3.9-3.54Z"></path><path class="cls-2" d="M71.72,64.64c0-.23.18-.41.41-.41h.52c.23,0,.41.18.41.41v10.59c0,3.97-2.58,7.03-7.41,7.03s-7.41-3.06-7.41-7.03v-10.59c0-.23.18-.41.41-.41h.52c.23,0,.41.18.41.41v10.54c0,3.33,2.13,5.76,6.08,5.76s6.08-2.43,6.08-5.76v-10.54Z"></path><path class="cls-2" d="M77.89,64.64c0-.23.18-.41.41-.41h7.39c3.83,0,6.03,2.63,6.03,5.69,0,2.4-1.34,4.51-3.74,5.37-.14.05-.2.23-.11.36l4.24,5.92c.09.16,0,.34-.18.34h-.82c-.25,0-.5-.14-.63-.34l-4.08-5.74c-.11-.11-.23-.18-.41-.18h-6.44c-.18,0-.32.14-.32.32v5.53c0,.23-.18.41-.41.41h-.52c-.23,0-.41-.18-.41-.41v-16.87ZM85.65,65.5h-6.1c-.18,0-.32.14-.32.32v8.25c0,.18.14.32.32.32h6.1c3.08,0,4.76-2.09,4.76-4.44s-1.68-4.44-4.76-4.44Z"></path><path class="cls-2" d="M104.36,74c-.23,0-.41-.18-.41-.41v-.36c0-.23.18-.41.41-.41h6.92c.23,0,.41.18.41.41v8.28c0,.23-.18.41-.41.41h-.32c-.23,0-.41-.18-.41-.41v-1.77c0-.14-.02-.41-.02-.54l-.02-.05c0-.09-.11-.14-.18-.05-1.47,1.95-3.9,3.15-6.58,3.15-5.1,0-9.23-4.1-9.23-9.18s4.13-9.18,9.23-9.18c2.88,0,5.44,1.34,7.14,3.42.14.16.09.43-.09.54l-.43.29c-.18.14-.43.11-.59-.07-1.45-1.75-3.63-2.86-6.03-2.86-4.33,0-7.87,3.54-7.87,7.85s3.54,7.85,7.87,7.85c2.7,0,5.08-1.38,6.51-3.51.09-.16.16-.39.16-.57v-2.52c0-.18-.14-.32-.32-.32h-5.74Z"></path><path class="cls-2" d="M116.24,81.92c-.23,0-.41-.18-.41-.41v-16.87c0-.23.18-.41.41-.41h11.34c.23,0,.41.18.41.41v.5c0,.23-.18.41-.41.41h-10.09c-.18,0-.32.14-.32.32v6.42c0,.18.14.32.32.32h8.48c.23,0,.41.18.41.41v.45c0,.23-.18.41-.41.41h-8.48c-.18,0-.32.14-.32.32v6.1c0,.18.14.32.32.32h10.09c.23,0,.41.18.41.41v.5c0,.23-.18.41-.41.41h-11.34Z"></path><path class="cls-2" d="M133.28,81.51c0,.23-.18.41-.41.41h-.52c-.23,0-.41-.18-.41-.41v-16.87c0-.23.18-.41.41-.41h.39c.25,0,.5.11.66.32l11.79,14.81c.07.09.2.04.2-.07v-14.65c0-.23.18-.41.41-.41h.54c.23,0,.41.18.41.41v16.87c0,.23-.18.41-.41.41h-.41c-.25,0-.5-.14-.66-.32l-11.79-14.83c-.07-.09-.2-.05-.2.07v14.67Z"></path><path class="cls-2" d="M152.24,81.92c-.23,0-.41-.18-.41-.41v-16.87c0-.23.18-.41.41-.41h.52c.23,0,.41.18.41.41v15.65c0,.18.14.32.32.32h9.5c.23,0,.41.18.41.41v.5c0,.23-.18.41-.41.41h-10.75Z"></path><path class="cls-2" d="M172.4,64.59c.11-.2.34-.36.59-.36h.63c.25,0,.48.16.59.36l7.75,16.96c.09.16-.02.36-.23.36h-.66c-.25,0-.48-.16-.57-.36l-1.52-3.33c-.09-.18-.27-.29-.45-.29h-10.48c-.18,0-.36.11-.45.29l-1.5,3.33c-.09.2-.32.36-.57.36h-.68c-.2,0-.32-.2-.23-.36l7.75-16.96ZM173.45,65.98c-.07-.11-.2-.11-.27,0l-4.69,10.39c-.07.14.02.29.18.29h9.3c.16,0,.25-.16.18-.29l-4.69-10.39Z"></path><path class="cls-2" d="M186.35,81.51c0,.23-.18.41-.41.41h-.52c-.23,0-.41-.18-.41-.41v-16.87c0-.23.18-.41.41-.41h.39c.25,0,.5.11.66.32l11.79,14.81c.07.09.2.04.2-.07v-14.65c0-.23.18-.41.41-.41h.54c.23,0,.41.18.41.41v16.87c0,.23-.18.41-.41.41h-.41c-.25,0-.5-.14-.66-.32l-11.79-14.83c-.07-.09-.2-.05-.2.07v14.67Z"></path><path class="cls-2" d="M205.31,81.92c-.23,0-.41-.18-.41-.41v-16.87c0-.23.18-.41.41-.41h6.51c5.37,0,8.23,3.9,8.23,8.84s-2.86,8.84-8.23,8.84h-6.51ZM211.75,65.55h-5.19c-.18,0-.32.14-.32.32v14.42c0,.18.14.32.32.32h5.19c4.47,0,6.96-3.24,6.96-7.53s-2.49-7.53-6.96-7.53Z"></path></g></svg> 