<?xml version="1.0" encoding="UTF-8"?> <svg xmlns="http://www.w3.org/2000/svg" id="Ebene_1" viewBox="0 0 155.91 70.87"><defs><style> .cls-1 { fill: #005a9a; } .cls-2 { fill: #00523b; } .cls-3 { fill: #ffd500; } </style></defs><path d="M77.58,32.88l-.25.21.08.08.21-.25-.04-.04h0ZM76.88,21.86l-.21.12c-.16.37-.74.53-1.07.7l-.29.25c0,.12.08.25.04.25-.08-.08-.37-.16-.49-.16-.16,0-.33.08-.49.21l-.04.33.29.04c.25-.12.49-.29.74-.41h.04c.45-.25,1.65-.74,1.73-1.15l-.25-.16h0ZM82.1,18.77l-.08.04.04.04.08-.04-.04-.04h0ZM62.03,37.73l-.25-.29.16-.16.21.12-.12.33h0ZM65.49,38.6l-.04-.04.04-.04.04.08h-.04ZM67.5,32.06v-.04h.08v.04h-.08ZM67.09,31.11l-.04-.08.08-.12.08.08-.12.12h0ZM68.08,31.85l-.08-.12.08-.04.12.04-.12.12h0ZM79.51,34.28c-.58.62-3.25,2.67-3.99,2.88-.66-.12-.82.62-1.07.62-.16,0-.33-.08-.49-.12-.16,0-.41.08-.58.16-.86.58-3.5.9-4.44.9-.41,0-1.03,0-1.36-.12l.12-.08.41-.08.16-.08c-.12-.08-.29-.12-.45-.12-.29.16-.53.33-.82.45-.33,0-.66-.04-.99-.04l-.04-.16c.12-.25.29-.78.62-.78.37,0,.62.21.99.21.45,0,.95-.25,1.4-.25.12,0,.29.04.21.21l.12.04c.21-.08.86-.49,1.03-.49.12,0,.21.08.25.21l.12.08.08-.08c-.12-.53,2.63-.99,3.17-1.27.41-.41.99-.29,1.44-.41l.08.04-.04.08c-1.36.9-2.67.82-4.07,1.4l-.12.21.21.04c2.67-.53,3.25-1.03,5.59-2.02.82-.33,1.6-1.11,2.39-1.56l.12.04-.04.12h0ZM68.28,28.31c-.08.33-.95,2.14-1.15,2.26v-.33c.12-.58.62-1.19.74-1.81.04-.08.16-.33.29-.33s.12.12.12.21h0ZM68.69,30.04v-.04h.04l-.04.04h0ZM68.45,29.22l.04.08-.04-.08.16-.16.04-.04v.12l-.21.08h0ZM69.56,30.37l-.04-.04.12-.37h.08s.04.08.04.12l-.21.29h0ZM68.73,28.73l-.04-.08.08-.08.08.08-.12.08h0ZM69.15,29.42l-.16.12-.04-.16c.12-.29.12-.66.45-.86l-.25.9h0ZM76.59,37.24l-.08-.12.21-.16.12.08-.25.21h0ZM69.43,28.44l.04-.37.08.04-.12.33h0ZM76.18,35.84l-.25-.16.41-.21.16.08-.33.29h0ZM77.5,36.83l-.21-.12.33-.16.12.08-.25.21h0ZM70.42,22.97c-.21.53-.45,1.07-.78,1.56h-.16l-.04-.12c.04-.29.58-1.4.78-1.6h.21v.16h0ZM71.28,23.63l-.04-.08.16-.08.04.08-.16.08h0ZM80.05,33.74l-.7.04.66-.25.16.08-.12.12h0ZM71.65,23.05h-.08v-.08l.29-.41h.12v.04l-.33.45h0ZM71.53,21.82l-.08.04v-.12l.25-.21.04.04-.21.25h0ZM71.94,19.68c-.49.74-.62,1.65-1.07,2.43l-.21.04-.08-.12c.12-.74.78-1.56.82-1.77.08-.33-.12-.49.33-.74l.16.04.04.12h0ZM71.98,20.95l-.08-.08.12-.12.12.08-.16.12h0ZM71.16,19.22h-.08l.12-.08.04.04-.08.04h0ZM73.46,16.39c-.16.74-1.03,2.06-1.07,2.3v.08l-.37.37-.12-.21c.53-.66.78-1.69,1.32-2.43l.25-.12h0ZM69.72,11.04s-.08.04-.12.08c.04-.04.08-.04.12-.08h0ZM83.46,17.66c-.12.21-.25.41-.33.62.21,1.48-8.1,6.46-9.75,6.33l-.41-.04v-.08c.04-.16.66-.49.78-.62l.04-.25-.21-.04c-.12,0-.33.12-.37-.04l.21-.37c.45-.16.86-.37,1.28-.58.82.04,1.56-.9,2.88-.99.78-.49,2.39-.74,2.8-1.77l1.97-1.65.21.04.21-.12.25-.29.45-.16h0ZM75.56,16.88v-.04.04h0ZM71.12,10.88l-.04-.04h-.21l-.08-.04.08-.12c.29-.08.58-.08.86-.08v.04l-.62.25h0ZM82.31,16.3c-.16.29-.74.9-.78,1.11v.08c-.25.29-2.1,1.73-2.51,2.1-1.77,1.44-4.11,2.59-6.21,3.21l-.16-.08.04-.21.33-.29.41.08.25-.12c.21-.33.37-.66.49-1.03v-.16c-.25-.12-.53-.25-.82-.29l.21-.21c.21-.04.49-.16.53-.45v-.29l.21-.16c.49.04.45-.37.74-.62l-.04-.12c-.08-.04-.12-.08-.12-.21.04-.12.33-.16.37-.37.08-.29-.12-.25.21-.53l.16-.29c-.37-.41,2.02-3.25,2.14-3.87.08-.41-.29-1.19-.21-1.48,0-.12.08-.16.21-.16,1.6,0,4.28,1.69,4.48,3.29-.12.29-.25.53-.45.78-.04.04.04.08.08.08.08,0,.25-.16.37-.16.04,0,.08,0,.12.04l-.04.33h0ZM75.15,10.34c-.78.08-1.69.16-2.47.16-.08,0-.16-.04-.25-.08l.25-.12c.45-.04,1.03-.16,1.48-.12h0l.82-.04h.16l.16.08-.16.12h0ZM82.8,17.54c0,.21-.21.25-.37.25l-.12-.08.41-.37.08.12v.08h0ZM82.8,17.17l-.04-.16.12-.12.08.12-.16.16h0ZM84.28,32.14c.04-.41-.04-.78-.21-1.11-.25-.66-.33-1.44-.7-2.02-1.44-2.34-5.43-3.29-7.94-4.32l-.12-.12.08-.12c1.65-.7,3.29-1.52,4.81-2.43.66-.37,1.23-.95,1.93-1.15.21-.16,2.71-2.8,2.71-2.8v-.12l.16-.25c.21-.12.29-.37.29-.58.7-3.78-6.7-6-9.34-6.91-.49-.12-.82-.33-1.36-.33-3.91,0-9.5,2.92-9.62,2.92-.08,0-.16,0-.25-.08h-.21l.04.21c.29.33.33.58.53.95l.16.16c.33-.08.41.78,1.07.78,1.23,0,5.47-2.88,8.18-2.88.12,0,.16.12.12.21-.25.45-1.07,1.77-1.15,2.18l.08.25c0,.16-.16.25-.29.33-.45.25-1.44,2.22-1.52,2.76-.08.41-.16.62-.33,1.03l-.29.25c-.12.04-.37.25-.41.41,0,.04,0,.29.04.29h0c-.29.33-1.69,3.29-1.73,3.7-.08.33-.04.74-.37.99l-.21.33c-.08,1.07-3.33.74-3.66,1.81l.16.21c.41-.04.25.49.95.9.25.45,1.03.41.86,1.11-.04.41-.41.74-.45,1.15-.04.21-.04.41-.04.62-.12.08-.78,1.56-.82,1.73-.04.21-.04.41,0,.62-.37,1.23.99,2.26,2.06,2.26.16,0,.49,0,.53-.21.04-.16-.08-.62-.12-.78,0-.12.16-.25.25-.25.29-.58.37-1.19.58-1.81.16-.45.49-.25.74-.49,0-.04-.25-.45-.29-.58l.29-.16c.86,0,1.32-1.69,1.44-2.34-.21.25-.45.41-.7.58,0-.16-.04-.37,0-.53.08-.53.62-.53,1.07-.7.45-.45,4.24-.95,4.98-.95.21,0,.41.04.62.12,1.77-.04,2.71,1.85,2.43,3.5-.16.86-.62,1.19-1.19,1.81l-.08.16.16-.04c.16-.16.37-.25.58-.25l.12.04-.04.12c-.21.08-.33.25-.37.45-1.52,2.51-9.58,4.69-12.13,4.69,0,0-.04,0-.04-.04q.04-.08.08-.16l-.08-.08c-.29.08-1.23.37-1.4.58,0,.04,0,.41.08.41l.08-.08c.08-.16.21-.33.41-.33l.29.08-.04.25c-.21.33-.66.45-.99.45-.12,0-.37-.04-.33-.16.04-.16.16-.21.08-.21-.12,0-.29.04-.37.12-.16,0-.25-.08-.29-.16-.25-.29-.58-.29-.95-.37l-.08-.12.08-.08c.41,0,.74.21,1.11.21.12,0,.25-.04.37-.12l.04-.08h-.08l-.45-.04c-.53-.04-1.11-.25-1.65-.33-1.07-.16-1.03-.82-1.32-1.6-.08-.12-.12-.21-.12-.37.04-.12.08-.25.08-.41l-.08-.21-.16.16c-.08.25-.33.53-.37.82-.08.45.21,1.03.41,1.4.95,1.69,3.33,1.32,4.81,2.06h.33c1.19.08,2.71-.16,3.87,0,.29.04.62.21.9.21,1.19,0,6.38-1.23,7.28-2.1l.08-.04c.37.08.66-.29,1.03-.29.08,0,.16,0,.25.04.37-.16.62-.49.99-.7.9.12,1.07-.49,1.77-.82.7-.12,2.1-2.47,2.26-3.17h0ZM88.48,34.32l-.04-.12.12-.12.04.16-.12.08h0ZM88.56,33.33s-.04.04-.08.08c-.04-.04-.08-.08-.04-.12.04-.12.12-.25.21-.37-.04.12-.04.29-.08.41h0ZM88.76,32.39c0,.12-.08.33-.12.49-.12.04-.25.08-.37.12-.12,0-.21-.04-.21-.16.04-.21-.04-.25-.25-.21-.04.04-.12.04-.16.04-.04-.08-.12-.16-.12-.25,0-.04.12-.16.21-.21.08-.08.21-.08.29-.08s.21.04.29.08c.12.04.41-.08.45.16h0ZM96.95,37.16h0l.04-.04-.04.04h0ZM89.59,25.64c-.08.04-.12.08-.21.08-.08.04-.16,0-.29-.04.04-.04.04-.12.08-.12.08-.04.21-.08.29-.04.04,0,.08.08.12.12h0ZM92.59,21.16c.04.12-.08.29-.16.45-.41.53-.62,1.15-.86,1.73-.04.12-.08.25-.08.37-.04.21-.08.45-.12.66-.04.33-.2.58-.53.74-.37.21-.53.45-.53.86s-.12.82-.37,1.23c-.08.16-.08.33-.08.53.04.12.16.29.12.37-.08.12-.29.16-.41.25-.37.25-.53.62-.66.95-.08.37-.29.49-.58.62-.41-.21-.49-.37-.16-.7.29-.29.49-.53.58-.9.08-.16.25-.29.33-.45-.25-.16,0-.45,0-.7v-.74c0-.08.08-.16.12-.29.04.04.08.08.16.12.04.04.12.04.21.04,0-.04.04-.12.04-.21.04-.12,0-.29,0-.45.16,0,.29-.04.29-.21.04-.53.04-1.07.12-1.6,0-.16.08-.33.16-.41.29-.25.49-.58.86-.66.12-.04.16-.16.08-.25-.21-.21-.12-.33.12-.45.16-.08.25-.21.33-.37.12-.29.29-.58.41-.86h.17s.08.12.12.12c.12.08.33.12.33.21h0ZM92.38,20.71s-.08.08-.12.08h-.08s.04-.04.08-.08h.12ZM102.87,32.1s.04-.16,0-.25c0-.04-.12-.08-.21-.04-.66.21-1.28.58-1.89.9-1.27.7-2.51,1.36-3.82,1.97-.7.33-1.48.62-2.22.9-.54.21-1.07.41-1.65.53-.66.16-.82.04-.95-.58,0-.16-.04-.29-.08-.45-.08-.86-.04-1.77.33-2.71.12-.29.21-.62.25-.9.08-.53.08-1.03.45-1.52.04-.12.04-.25.08-.41.16-.41.29-.78.45-1.19.04-.08.17-.21.25-.25.45-.08.91-.21,1.36-.21.21,0,.41-.04.66-.12.82-.29,1.64-.62,2.43-.45.62.12,1.15-.25,1.73-.33.37-.33.78-.41,1.19-.58.45-.16.86-.37,1.32-.58.2-.12.41-.29.53-.53.17-.45.37-.9.53-1.36.25-.62-.08-1.03-.7-.82-.53.21-1.11.25-1.6.66-.12.08-.25.12-.37.16-.41.12-.78.25-1.19.41-.62.21-1.23.49-1.85.66-.9.29-1.85.49-2.76.74-.29.08-.33.04-.29-.29.08-.49.21-.95.58-1.32.21-.21.29-.45.37-.74,0-.08.04-.21.12-.29.33-.66.7-1.32,1.07-1.97.25-.53.66-1.03.82-1.6.04-.08.16-.16.21-.25.29-.37.33-.37.66-.29.29.08.58.25.86.16.49-.04,1.03-.21,1.48-.41.37-.16.74-.29,1.11-.37.45-.08.95-.29,1.36-.58.33-.66,1.07-.86,1.48-1.44.12-.21.29-.37.41-.53.16-.29.08-.62-.25-.66-.45,0-.95-.04-1.4.04-.7.16-1.36.41-2.06.58-.45.12-.91.25-1.36.33-.08.04-.21.04-.29,0-.37-.29-.86-.45-.78-1.11,0-.16-.08-.41-.2-.53-.58-.58-1.28-.95-2.14-1.11-.45-.08-.91.21-1.36.21-.41.37-.94.66-1.27,1.11-.53.66-1.11,1.32-1.48,2.14-.08.25-.21.49-.33.74-.54,1.03-1.11,2.1-1.65,3.17-.08.12-.12.25-.16.37-.21.82-.53,1.6-1.03,2.3-.12.21-.21.41-.29.62-.33.82-.62,1.69-.9,2.55-.08.21-.08.45-.12.7-.04.25-.12.49-.21.74-.04.12-.08.25-.12.41-.12.53-.25,1.07-.37,1.6,0,.08.04.16.08.21.12.12.41-.04.62-.29.16,0,.29.04.25.25,0,.12-.12.29-.21.33-.16.04-.33.29-.58.16-.16-.12-.25.04-.33.25-.25.49-.08.95-.12,1.44-.08.82,0,1.6.29,2.39.29.82.86,1.36,1.56,1.81.62.41,1.32.78,1.97,1.19.12.08.29.16.41.12.37-.12.58.08.86.16.53.16,1.15.16,1.77.16.33-.04.74-.12,1.07-.12.49,0,.9-.08,1.32-.41.12-.12.29-.16.41-.08.12.08.25,0,.25-.08.08-.41.33-.49.62-.58.41-.12.78-.29.99-.74.04-.12.21-.21.29-.29.62-.37,1.11-.9,1.77-1.11.25-.08.41-.29.54-.53.25-.53.49-1.03.95-1.48.17-.21.33-.45.49-.7h0ZM118.09,32.59c-.08.04-.29.12-.33.08-.08-.04-.16-.16-.29-.33.25-.04.45-.12.53-.08.16.04.21.16.08.33h0ZM117.23,31.56l-.04.04s-.04,0-.12.04c-.08-.12-.08-.21-.16-.33,0,0,.04-.04.08-.08h.08c.04.12.12.21.17.33h0ZM119.69,33.46c-.04.08-.16.12-.33.29-.08-.21-.08-.33-.12-.45.04-.04.21-.12.25-.12.21,0,.29.12.21.29h0ZM121.75,35.39s-.04.12-.08.21c-.08,0-.12.08-.21.08-.08.04-.12,0-.16,0-.25-.29-.58-.53-.99-.66-.08,0-.08-.16-.04-.29,0,0,.12-.12.25-.16.08-.04.16-.08.25-.08.49-.04,1.07.45.99.9h0ZM115.62,27.41c-.04.08-.17.08-.21.16,0-.08-.04-.12-.08-.16.08-.04.16-.12.16-.16.04.08.12.12.12.16h0ZM114.51,25.31s-.04-.04-.04-.04l.04-.08.04.04-.04.08h0ZM115.99,19.88c.08.16-.21.29-.37.41-.04.08-.17.16-.25.21-.74.25-1.48.53-2.26.78-.04.04-.08,0-.08,0-.21-.04-.25-.29-.04-.45.29-.16.62-.37.86-.49.41-.16.82-.29,1.23-.45.17-.04.33-.12.45-.12.2,0,.37.04.45.12h0ZM118.54,20.29s-.08.21-.17.29c-.16.08-.33.16-.49.25-.16.08-.37.16-.54.25-1.07.74-2.14.99-3.25,1.28-.21.04-.41.04-.58.04-.16-.04-.29-.04-.33-.12-.08-.12-.21-.21-.16-.37.04-.16.25-.29.45-.33,1.56-.33,3.09-.82,4.61-1.4h.2c.08.04.25.04.25.12h0ZM117.23,19.59c-.04.16-.29.29-.45.25-.08-.04-.12-.16-.21-.33.25-.08.41-.16.58-.21.16,0,.2.12.08.29h0ZM121.09,18.24s-.12.12-.21.21c-.04.04-.12.08-.16.12-.78.25-1.6.53-2.35.78-.08.04-.2,0-.33.04-.04-.04-.12-.08-.08-.16,0-.08.08-.16.12-.21.29-.12.57-.25.86-.37.45-.12.86-.33,1.32-.41.21-.08.41-.16.58-.12.08-.04.16.04.25.12h0ZM121.54,19.02s-.08.04-.08.04c-.37.25-.66.49-1.03.74-.29.16-.62.29-.9.37-.08.04-.21-.08-.25-.16,0-.04.08-.25.21-.29.37-.25.78-.49,1.23-.74.29-.16.54-.12.78-.08,0,0,0,.08.04.12h0ZM123.52,15.19c-.58.41-.99.9-1.48,1.32-.16.16-.45.25-.66.33-.58.21-1.15.41-1.73.58-.16.08-.37.12-.58.25-.41.29-.82.45-1.23.41-.08,0-.29.08-.37.16-.66.7-1.4.74-2.06.82-.37.08-.62.04-.95.37,0,.04-.04.08-.08.08-.12,0-.25.08-.33.04-.04-.04-.04-.16,0-.29.21-.49-.04-.9.08-1.4.04-.12-.08-.21-.16-.25-.33-.25-.54-.53-.49-1.03,0-.21-.12-.41-.16-.66-.04-.16.16-.37.37-.41.08-.04.16-.04.29-.08.78-.04,1.56-.08,2.34-.12.74-.08,1.52-.16,2.18-.04.12,0,.25-.12.37-.16-.04-.08-.04-.21-.16-.25-.08-.08-.25-.12-.37-.21,0-.04.08-.29.12-.29.99-.21,1.97-.58,3-.45.12,0,.29.08.41.25.29.41.74.58,1.32.66.12,0,.25.04.29.08.08.04.08.29.04.29h0ZM117.56,14.33s-.17.16-.29.16c-.08.04-.21.04-.29.04s-.16-.04-.21-.04c-.12-.08-.33-.16-.16-.37.04-.08.29-.21.41-.21.16-.04.37.04.53.08.04.04.08.21,0,.33h0ZM124.05,14.08s-.12.04-.29.08c0-.12,0-.21.04-.33.08-.04.2-.04.25-.04.04.08.04.16,0,.29h0ZM125,14.29s-.12,0-.16.04c0-.04-.04-.08-.04-.16.08.04.16,0,.2,0,.04-.04.04.08,0,.12h0ZM124.01,35.64c-.04-.82-.08-1.6.12-2.47.08-.33.04-.58-.21-.78-.21-.21-.45-.33-.74-.49-.25-.12-.49-.29-.7-.49-.57-.45-1.11-.9-1.69-1.36l.04-.04h-.04v.04c-.08.41.17.62.41.74.45.25.7.62.9,1.03.17.33.04.53-.41.7-.41.16-.86.16-.99-.16-.16-.33-.45-.53-.74-.78-.08,0-.04-.08-.08-.16.12-.04.25-.08.29-.08.08,0,.17,0,.25-.04,0-.08.04-.16,0-.21-.33-.37-.62-.74-1.28-.78-.16,0-.29-.16-.41-.29-.16-.25-.21-.66-.7-.66-.08,0-.12-.16-.16-.25-.08-.16-.29-.41-.08-.58.37-.25.45.08.66.16.08.04.12.08.16.12.41.25.78.53,1.19.78.04.04.16.04.29.04,0-.08-.04-.16-.08-.21-.54-.49-1.07-.95-1.65-1.44-.2-.21-.41-.37-.57-.53-.29-.29-.49-.58-.78-.86-.54-.45-1.07-.86-1.56-1.32-.16-.21-.25-.49-.53-.62-.54-.16-.66-.7-1.07-1.03-.25-.25,0-.66.45-.7.58-.12,1.15-.33,1.81-.58.21-.12.41-.08.62-.12.49-.12.95-.21,1.4-.33.62-.16,1.15-.41,1.69-.53.99-.21,1.93-.58,2.84-1.15.78-.45,1.44-.99,2.26-1.28.29-.08.53-.29.58-.53.08-.45.49-.78.86-1.11.78-.66.99-1.32.62-1.89-.12-.21-.21-.41-.12-.7.21-.74-.16-1.07-.82-1.19-.25-.04-.41-.12-.58-.21-.78-.16-1.44-.45-2.22-.53-1.32-.16-2.43-.66-3.83-.7-.12.04-.21-.04-.29-.08-.21,0-.37-.04-.53-.04-1.23-.12-2.39-.25-3.62-.37-.58-.08-1.15-.12-1.77,0-.25.08-.54.16-.74.08-.82-.29-.37.04-1.19-.25-.45-.12-1.03.21-1.36.7-.49.82-.78,1.65-.66,2.39.04.37,0,.74-.12,1.15-.16.53,0,.78.54.78.29,0,.53-.04.82-.08.78-.16,0-.33.78-.49h.41c.37,0,.41.25.12.49-.25.16-.41.41-.49.66-.21.58-.49,1.11-.58,1.69-.16.9-.62,1.81-1.23,2.63-.21.29-.33.53-.37.78-.04.41-.25.82-.58,1.23-.21.29-.33.53-.33.82.04,1.23-.53,2.55-1.03,3.82-.49,1.19-.95,2.43-1.36,3.62-.29.86-.54,1.73-.82,2.59-.37,1.11-.74,2.22-1.07,3.29-.16.58-.25,1.11-.08,1.56.12.25.37.58.66.62.33.04.66-.41.95-.74.33-.33.49-.66.62-.99.41-1.23.9-2.43,1.32-3.66.29-.82.66-1.69,1.15-2.51.12-.21.21-.41.29-.58.33-1.11.86-2.18,1.4-3.29.08-.21.29-.33.45-.25.49.25,1.07.29,1.32.78.12.16.29.25.45.37.29.12.41.37.49.62.08.16.12.45.33.45.41.08.58.33.82.62.21.29.45.62.78.78.54.33.9.78,1.27,1.19.45.45.99.82,1.44,1.23.25.25.54.41.74.7.41.66,1.11,1.03,1.81,1.36.7.33,1.27.7,1.27,1.56,0,.62.54.78,1.23.58.12-.04.25-.21.33-.25.33-.49.62-.99.9-1.44.12-.25.16-.41.12-.58h0ZM129.19,32.06s-.04.04-.08.08c-.04,0-.04-.04-.08-.04l.17-.16c0,.08.04.12,0,.12h0ZM129.44,29.84s-.08.12-.12.12-.12-.04-.16-.04v-.04c.04-.08.16-.16.25-.12,0,.04.04.04.04.08h0ZM130.43,27.57l-.08-.04s.04-.04.08-.04c0,0,.04,0,.04.04l-.04.04h0ZM130.47,27.29l-.04-.04s.04-.04.08-.04l.04.04-.08.04h0ZM137.71,35.43s-.04.08-.04.12c-.04.04-.12.04-.21.08v-.12s.08-.08.12-.08h.12ZM131.42,25.97c0,.08-.04.12-.04.16-.04.12-.08.21-.21.21-.04,0-.12,0-.16.04-.08,0-.12,0-.16-.08-.04-.12-.04-.21.08-.29.12-.04.25-.08.33-.21.04-.08.12-.04.17.04v.12h0ZM139.97,36.29s-.04-.04-.04-.04c0-.08.04-.12.12-.12,0,0,.04,0,.04.04l-.12.12h0ZM139.07,34.9h0v.04-.04h0ZM132.32,24.98s0,.04-.04.08c-.21.12-.45.25-.7.16-.08-.04-.08-.08-.04-.16.04-.08.08-.12.12-.16.25-.25.49-.21.66.04v.04h0ZM141.37,36.17s-.04.04-.08.04c0,0-.04-.04-.08-.08.08,0,.12-.04.16-.04v.08h0ZM139.64,34.11v-.04s.04,0,.08-.04v.08h-.08ZM140.55,34.48c-.12.12-.37.29-.54.25,0,0-.04,0,0,0v-.08c.16-.08.33-.16.45-.25.04,0,.04.04.08.04v.04h0ZM132.65,25.02v-.08s.04-.04.08-.04l.04.04-.12.08h0ZM132.73,24.24l-.04.04c-.12.08-.21.12-.33.16-.04,0-.12,0-.12-.04-.04-.04,0-.12.04-.16.08-.08.16-.08.25-.08.04,0,.08,0,.12.04t.08.04h0ZM140.38,33.66h-.04s-.04-.04,0-.04h.04v.04h0ZM132.24,23.05s-.08.08-.17.08c-.04,0-.04-.04-.08-.04.04-.04.04-.08.12-.12h.08s.04.04.04.08h0ZM132.69,23.58s-.08-.08-.12-.12l.04-.08h.16s.04.08.08.08l-.17.12h0ZM133.18,22.89v-.08s.12-.04.16-.08c0,0,0,.04.04.08l-.21.08h0ZM134.17,22.1l-.04.04c-.12.16-.33.29-.54.37-.04,0-.08,0-.12-.04-.04-.04-.08-.08-.12-.16-.08-.16-.04-.16.12-.21.12-.04.25-.08.33-.12.12-.04.25-.04.33.04,0,0,0,.04.04.08h0ZM135.45,19.97s0,.12-.08.16c-.21.33-.41.66-.7.95-.12.12-.25.25-.41.33-.04.08-.12.04-.17,0,0-.04-.08-.08,0-.16.21-.08.25-.33.49-.41h0c.12-.29.37-.45.54-.66.08-.12.08-.16-.04-.21h-.12s.04-.08.08-.08c.12-.08.21-.12.33-.21.08-.04.12,0,.12.08,0,.04,0,.08-.04.21h0ZM135.94,20.13s-.08.04-.12.08c0,0-.04-.04-.08-.08.08-.04.08-.08.12-.08s.04.04.08.08h0ZM135.78,18.32h-.04v-.04h.04v.04h0ZM136.47,18.73v.04c-.12.08-.21.16-.33.16,0,0-.04,0-.04-.04h0c.12-.08.21-.16.33-.21l.04.04h0ZM137.21,17.66c-.12.16-.25.29-.37.41-.04.04-.08.08-.16.12,0-.04-.04-.08-.04-.12.12-.16.21-.41.45-.53.04-.04.12,0,.12,0,.04.04.04.12,0,.12h0ZM137.83,17.33l-.04.04c-.08,0-.16-.04-.25-.04,0,0,0-.04-.04-.04.04,0,.04-.04.04-.04.08,0,.21.04.29.04v.04h0ZM148.16,17.74c0-.16.04-.37.04-.53-.04-.37.16-.78.16-1.19,0-.04.04-.12.04-.16.04-.21.08-.41.04-.66v-.45c0-.08.04-.16.04-.25-.04-.25-.08-.49.08-.78,0-.04,0-.08-.04-.12-.04-.21-.12-.41-.16-.66,0-.08-.04-.16-.12-.21-.08-.08-.17-.12-.21-.21-.04-.21-.16-.33-.25-.49-.04-.04-.08-.08-.08-.16,0-.16-.08-.25-.2-.37-.08-.04-.17-.12-.25-.21-.16-.33-.49-.45-.78-.53-.33-.12-.57-.33-.95-.33l-.04-.04c-.12-.04-.25-.04-.33-.08-.21-.04-.37-.04-.53-.08-.29-.04-.53-.12-.78-.16-.25-.04-.45-.04-.66,0-.78.08-1.52.25-2.26.62-.21.12-.41.25-.53.41-.12.12-.25.21-.37.29-.21.16-.37.33-.45.53-.04.16-.12.25-.25.33-.45.49-.9,1.03-1.32,1.56-.29.33-.58.66-.86,1.03-.04.04-.08.12-.12.16-.21.25-.37.45-.54.7-.25.37-.62.7-.78,1.11,0,.04-.04.08-.04.08-.21.16-.37.37-.49.62-.04.08-.12.16-.21.25-.25.33-.49.66-.74.99-.08.08-.04.12,0,.16.04,0,0,.12,0,.12-.16.16-.41.25-.45.49-.04.04-.12.08-.16.12-.29.21-.49.45-.62.78-.04.08-.12.16-.16.25-.12.08-.25.16-.08.29,0,0-.04.04-.04.08-.08.04-.16.08-.25.16-.12.08-.25.21-.29.37,0,.21-.12.37-.29.45-.16.08-.29.21-.25.37,0,.16,0,.25-.21.29-.12.04-.17.12-.21.25-.04.12-.08.25-.16.37-.12.25-.21.49-.49.66-.12.08-.2.21-.25.37-.04.08-.08.21-.16.29-.21.12-.29.33-.41.53-.08.12-.08.25-.17.37-.21.29-.29.58-.49.86-.04.08-.08.16-.08.29-.04.25-.12.49-.33.7-.21.16-.29.37-.29.58,0,.08,0,.21-.04.29-.04.21-.2.37-.12.58,0,0,0,.04-.04.08-.25.37-.21.82-.41,1.23h0c.04.16-.04.33-.12.49-.04.04-.04.12-.04.21-.04.12-.04.25-.04.37,0,.33-.08.7-.08,1.03.04.33.08.66.16.99,0,.08.08.16.12.25.08.04.17.16.17.29-.04.25.04.41.12.58.08.21.29.33.29.58,0,.04.04.08.08.12.16.12.33.21.41.37.12.21.29.37.53.45.08,0,.08.04.16.08.08.08.17.12.29.16.12.08.33.12.41.29.04.04.12.08.17.08.12.04.2.08.33.12.16.08.29.16.45.16.33.04.58.25.74.45.25.25.49.37.86.33.12,0,.21.04.29.04.33.08.7.12,1.07.04.04.04.12.04.21.04.29-.04.53-.12.82-.16.25-.04.45-.08.7-.12.12,0,.21-.04.29-.16.08-.08.16-.16.29-.21.16-.04.29-.08.45-.16.08,0,.17-.04.25-.04.12-.04.21,0,.16.12,0,.12-.04.25-.04.37s-.04.21-.04.29c0,.12.04.16.21.16,0-.04.04-.04.04-.08v-.04q-.08-.12,0-.16c.12-.04.21-.12.25-.25.04-.21.12-.41.2-.62.08-.29.25-.49.58-.58.08-.04.21-.08.25-.21.08-.25.25-.29.45-.29.12,0,.21-.04.33-.16.12-.21.29-.25.49-.29.08,0,.16.04.25.04-.04.12-.17.08-.21.12-.04,0-.08,0-.12.04-.16.04-.21.12-.08.29.04,0,.04.04.08.08,0,.04.04.12,0,.16-.04.08-.12.12-.21.12-.04.04-.08,0-.16,0-.21-.04-.41.08-.62.16-.04.04-.12.12-.12.16-.08.12,0,.21.08.21.12-.04.25-.08.33-.12.04,0,.08,0,.08.04v.04s-.08.08-.12.12c-.04.04-.04.12.04.12s.16,0,.04.12c-.04.08-.04.16.04.21.12.08.16.29.33.33,0,0,.04.08,0,.12-.21.21-.37.45-.74.45-.04,0-.12.04-.21.04,0,0,0,.29-.04.33,0,0,.04.04.08.04.12-.04.25,0,.37.08.12.08.12.12.04.33q-.08.25.08.41c.08.08.08.49,0,.66,0,.04-.04.08-.04.08-.25.12-.49.21-.74.33-.04,0-.08-.04-.12-.08-.16-.16-.37-.08-.58.08-.37.25-.41.25-.41-.25v-.25s-.04-.12-.04-.16c-.04-.04-.12-.08-.12-.16.04-.04.08-.12.12-.21.04-.16.12-.33.16-.49.04-.04.04-.12,0-.21-.04-.12-.12-.21-.21-.16-.12.08-.16.21-.2.33-.04.21-.08.41-.21.62-.08.16-.08.33-.04.49.08.21.04.37-.04.58-.12.45,0,.78.25.86.25.04.49.16.7.37.04.04.12.08.2.12.29.04.45.29.54.66.04.16.12.33.21.45.2.29.45.37.74.41.21.04.54-.21.58-.58,0-.08.04-.16.04-.21.04-.16.08-.29,0-.37-.04-.08-.04-.16,0-.29.08-.12.12-.25.12-.33,0-.16.08-.29.17-.37.12-.12.16-.25.16-.45,0-.04,0-.08.04-.12.12-.53.29-1.07.41-1.56.04-.12.04-.21.08-.33.08-.45.29-.99.49-1.27.08-.16.12-.33.16-.49.04-.21,0-.45.17-.7.04-.04.04-.12,0-.16-.12-.08-.04-.16.04-.21.12-.08.16-.21.12-.33v-.16c.16-.12.29-.29.33-.49,0-.04.08-.04.12-.08.04-.08.12-.12.12-.21.04-.12.16-.25.08-.37,0-.04.04-.08.08-.12.33-.29.45-.7.66-1.11.04-.08,0-.16-.08-.21h-.2c-.08-.04-.08-.12,0-.21.04-.04.12-.08.16-.08.41-.12.62-.45.82-.78.12-.12.21-.33.29-.49.08-.12.16-.29.21-.45.08-.16.16-.29.25-.45.17-.16.29-.37.33-.62.04-.21.12-.45.29-.62.17-.21.37-.41.49-.58.12-.16.29-.29.29-.49,0-.16.04-.29.12-.41.12-.33.21-.62.08-.9v-.12c.04-.16,0-.21-.12-.21-.08,0-.12.04-.21.04s-.12-.04-.12-.08c.04-.29.21-.53.16-.78,0,0,.04-.04.08-.04,0-.04.04-.08.04-.12-.04,0-.08-.04-.12-.04-.53.12-1.11.25-1.65.45-.16.04-.37.08-.53.12-.08,0-.17,0-.17-.08.04-.12-.08-.16-.16-.12-.16,0-.33.04-.45.04-.33.04-.62.16-.82.45-.08.08-.16.16-.29.25-.08.08-.16.16-.29.21-.37.12-.78.29-1.19.41-.33.08-.62.12-.95.21-.45.12-.9.08-1.4.12-.08,0-.16-.04-.25-.04-.25-.04-.49-.08-.74-.08-.41-.04-.78.25-1.15.49h-.04c-.04.08-.08.21,0,.25.08.08.2.12.33.16.08.04.25.04.29.12.08.12.2.16.33.16.21,0,.37.04.53.08.12,0,.25.04.29.08.16.12.33.16.53.21.04.04.16.04.16.12.08.16.25.21.41.25.21.04.41.08.66.16.12.04.25.04.37-.04.12-.04.21-.08.33-.12.08,0,.12.08.08.16-.08.08-.16.21-.25.33-.21.25-.45.49-.57.78-.04.08-.12.12-.17.16-.25.16-.37.33-.49.53-.16.25-.29.45-.49.7-.33.37-.7.74-1.11,1.07-.29.25-.58.53-.82.78-.16.12-.33.25-.45.37-.12.12-.29.21-.41.29-.12.08-.21.16-.29.25.12.04.21-.08.33-.12.16-.08.33-.21.49-.29.58-.45,1.11-.9,1.69-1.36.08-.04.16-.16.25-.25.33-.29.58-.66.95-.95.08-.04.16-.21.33-.16-.08.12-.12.25-.16.37-.04,0-.04.04-.08.08-.29.25-.58.53-.9.82-.25.21-.49.37-.74.62-.62.49-1.19,1.03-1.93,1.44-.04,0-.08.04-.12.08-.41.25-.82.53-1.32.62-.12.04-.25.12-.37.16-.21.08-.41.16-.58.25-.45.08-.82.04-1.11-.25-.12-.16-.25-.29-.37-.45-.08-.08-.12-.21-.16-.33-.08-.16-.12-.37-.2-.53-.12-.33-.12-.7-.08-1.07.04-.12.04-.25.04-.37.04-.21.04-.45.08-.62.08-.33.12-.62.16-.95,0-.12,0-.29.04-.41.04-.12,0-.16-.12-.21-.08-.04-.08-.08,0-.16.08-.12.16-.21.25-.33.08-.08.04-.16-.04-.16h-.12s-.08-.04-.04-.04c0-.04,0-.08.04-.08.04-.04.08-.08.12-.08.49-.25.78-.66.9-1.15.04-.12.08-.29.21-.37.04-.08.12-.21.17-.29.04-.08.12-.25.08-.33-.08-.21.04-.29.21-.41.08-.08.16-.21.29-.29.08-.08.08-.16.04-.29-.08-.12-.04-.16.08-.25.12-.08.25-.16.37-.25t.04-.08l-.04-.04c-.08,0-.17,0-.21-.04-.08,0-.12-.08-.08-.16.04-.04.04-.12.08-.16.21-.12.29-.33.33-.53.04-.12.12-.21.21-.29q.12-.12.08-.29c-.04-.08-.04-.12.08-.21.16-.08.33-.12.45-.25.21-.16.41-.33.54-.58.04-.16.16-.25.33-.33.08,0,.12-.04.16-.08.04-.04.12-.08.08-.12-.04-.16.08-.21.17-.33.08-.04.16-.16.16-.21,0-.16.08-.21.16-.29.21-.12.41-.29.41-.53,0-.16.04-.25.17-.29.16-.08.21-.16.29-.33.08-.21.04-.45.29-.62.04,0,.08-.08.08-.12.08-.16.21-.29.37-.33.16-.04.33-.16.49-.29.16-.16.16-.21.08-.37-.08-.16-.04-.25.08-.37.21-.29.45-.49.58-.78,0-.08.08-.12.12-.16.17-.12.29-.25.41-.41.04-.04.08-.08.16-.08.17.04.29-.04.33-.21.08-.16.21-.29.37-.41.12-.08.21-.16.33-.29.04-.08.08-.21.04-.25-.04-.12,0-.21.08-.33.08-.16.16-.33.33-.45.21-.16.41-.37.62-.53.25-.21.41-.37.53-.62.04-.08.08-.16.12-.21.25-.21.49-.45.74-.66.12-.12.29-.21.37-.33.17-.16.37-.25.58-.33.21-.12.37-.04.41.16,0,.08.04.16.04.25.12.41.29.78.25,1.23-.04.12,0,.29,0,.41,0,.16.04.33.04.49v.53c.21.12-.04.33-.04.45,0,.08.04.12.04.21,0,.29,0,.62-.04.95-.04.29-.08.62-.12.95,0,.41.04.78-.12,1.19-.04.04,0,.12,0,.21.04.08.57.58.66.62.53.12,1.03.04,1.48-.41.12-.12.21-.25.25-.37.04-.37.25-.7.33-1.03,0-.08.04-.12.04-.16.12-.21.29-.41.41-.66,0-.04.04-.12.04-.16h0Z"></path><polygon class="cls-1" points="57.26 34.99 43.94 5.07 20.3 32.49 57.26 34.99 57.26 34.99"></polygon><polygon class="cls-3" points="8.82 39.54 29.6 9.48 46.34 36.87 8.82 39.54 8.82 39.54"></polygon><polygon class="cls-2" points="33.97 16.63 44.67 34.14 20.3 32.49 33.97 16.63 33.97 16.63"></polygon><path d="M11.02,60.38c1.15,0,3.3-.13,4.62-.47.07-.51.07-1.01,0-1.48-1.25.37-3.2.44-4.31.44-2.39,0-4.11-.61-3.57-3.17l.3-1.45h9.17l.51-2.43c.71-3.47.44-5.26-4.18-5.26-4.31,0-5.83,1.65-6.74,5.96l-.64,2.93c-.81,3.67,1.48,4.92,4.85,4.92h0ZM13.21,48.08c3.27,0,3.44,1.15,3.07,3.03l-.34,1.62h-7.55c.71-3.5,1.58-4.65,4.82-4.65h0ZM19.51,60.14c.37.1.64.07.81.07.24,0,.44.03.81-.07l1.85-8.79c.54-2.26,1.62-3.1,4.62-3.1h1.01c.1-.37.2-.67.24-.84.1-.24.07-.44.1-.67h-.3c-1.35,0-3.54,0-4.62,1.08h-.2v-.98c-.3-.1-.44-.1-.71-.1-.24,0-.51-.03-.77.07l-2.83,13.34h0ZM32.92,42.15c-.17,0-.4-.03-.77.07l-3.81,17.93c.37.1.57.07.81.07.17,0,.44.03.81-.07l3.81-17.93c-.37-.1-.61-.07-.84-.07h0ZM39.33,60.38c1.15,0,3.3-.13,4.62-.47.07-.51.07-1.01,0-1.48-1.25.37-3.2.44-4.31.44-2.39,0-4.11-.61-3.57-3.17l.3-1.45h9.17l.51-2.43c.71-3.47.44-5.26-4.18-5.26-4.31,0-5.83,1.65-6.74,5.96l-.64,2.93c-.81,3.67,1.48,4.92,4.85,4.92h0ZM41.52,48.08c3.27,0,3.44,1.15,3.07,3.03l-.34,1.62h-7.55c.71-3.5,1.58-4.65,4.82-4.65h0ZM56.44,46.56c-.54,0-3,0-4.11,1.28h-.27l1.18-5.63c-.37-.1-.57-.07-.81-.07-.17,0-.44-.03-.81.07l-3.81,17.93c.37.1.64.07.81.07.24,0,.44.03.81-.07l.24-1.18c.81,1.45,2.36,1.42,3.44,1.42,5.26,0,5.93-2.39,6.54-5.32l.67-3.13c.64-2.97,1.15-5.36-3.88-5.36h0ZM58.03,55.02c-.37,1.75-.81,3.84-4.58,3.84s-3.3-2.09-2.93-3.84l.78-3.64c.34-1.68,1.62-3.3,4.89-3.3s2.9,2.12,2.53,3.87l-.67,3.07h0ZM74.71,51.62c.64-2.86-.1-5.05-3.67-5.05-1.42,0-3.03,0-4.31,1.28h-.3v-1.04c-.37-.03-.57-.07-.74-.07-.24,0-.37-.03-.74.07l-2.83,13.34c.37.1.64.07.81.07.24,0,.44.03.81-.07l1.85-8.76c.54-2.26,1.65-3.3,4.68-3.3,3.57,0,3.13,2.06,2.7,4.18l-1.68,7.88c.37.1.64.07.81.07.24,0,.44.03.81-.07l1.82-8.52h0ZM76.59,60.14c.37.1.61.07.78.07.24,0,.47.03.84-.07l2.83-13.34c-.37-.1-.57-.07-.81-.07-.17,0-.44-.03-.81.07l-2.83,13.34h0ZM81.11,42.52c-.17,0-.4-.03-.77.07l-.47,2.12c.37.1.57.07.81.07.17,0,.44.03.81-.07l.47-2.12c-.37-.1-.61-.07-.84-.07h0ZM82.99,57.14c-.71.81-.88,1.08-1.25,2.39,1.18.54,3.44.84,4.85.84,3.74,0,5.39-1.15,6.03-4.25.94-4.65-6.54-3.61-6.13-5.63.17-.78.71-1.11,2.59-1.11,1.25,0,2.83.17,3.67.54.71-1.04,1.01-1.62,1.31-2.66-1.25-.54-3.2-.71-4.45-.71-3.27,0-5.53.98-6.17,3.94-.94,4.58,6.54,3.77,6.13,5.63-.17.94-.64,1.68-2.43,1.68-.91,0-3.3-.34-4.18-.67h0ZM98.36,59.3c.54,1.08,2.76,1.08,3.07,1.08,4.65,0,5.26-2.46,5.96-5.56l.57-2.73c.64-3.07,1.18-5.53-3.57-5.53-.34,0-2.26.1-3.3,1.42h-.3l.2-1.08c-.64-.17-1.15-.17-1.42-.17-.3,0-.84,0-1.62.17l-4.11,19.34c.67.17,1.21.17,1.48.17.3,0,.77,0,1.55-.17l1.48-6.94h0ZM104.29,55.09c-.27,1.21-.57,2.73-2.76,2.73s-2.63-1.15-2.36-2.22l.71-3.44c.27-1.18.61-2.76,3.13-2.76s2.16,1.58,1.89,2.76l-.61,2.93h0ZM117.73,56.23c-.91.81-2.09,1.58-3.44,1.58s-1.79-.17-1.48-1.65c.27-1.48,1.99-1.45,3.88-1.45h1.35l-.3,1.52h0ZM116.93,60.04c.67.17,1.21.17,1.48.17s.77,0,1.55-.17l1.75-8.39c.81-3.91-1.15-5.09-4.68-5.09-1.25,0-2.9.27-4.35.71-.24,1.11-.24,1.85.13,2.7,1.25-.37,2.29-.57,3.34-.57,1.62,0,2.86.57,2.56,2.22-.03.03-.03.1-.07.2-.03.13-.03.37-.14.67h-.3c-.98-.44-1.58-.51-2.9-.51-1.85,0-4.82.67-5.46,3.91-.71,3.34.44,4.48,3.91,4.48,1.04,0,2.76-.47,3.47-1.79l-.3,1.45h0ZM124.2,57.14c-.71.81-.88,1.08-1.25,2.39,1.18.54,3.44.84,4.85.84,3.74,0,5.39-1.15,6.03-4.25.94-4.65-6.54-3.61-6.13-5.63.17-.78.71-1.11,2.59-1.11,1.25,0,2.83.17,3.67.54.71-1.04,1.01-1.62,1.31-2.66-1.25-.54-3.2-.71-4.45-.71-3.27,0-5.53.98-6.17,3.94-.94,4.58,6.54,3.77,6.13,5.63-.17.94-.64,1.68-2.43,1.68-.91,0-3.3-.34-4.18-.67h0ZM137.11,57.14c-.71.81-.88,1.08-1.25,2.39,1.18.54,3.44.84,4.85.84,3.74,0,5.39-1.15,6.03-4.25.94-4.65-6.54-3.61-6.13-5.63.17-.78.71-1.11,2.59-1.11,1.25,0,2.83.17,3.67.54.71-1.04,1.01-1.62,1.31-2.66-1.25-.54-3.2-.71-4.45-.71-3.27,0-5.53.98-6.17,3.94-.94,4.58,6.54,3.77,6.13,5.63-.17.94-.64,1.68-2.43,1.68-.91,0-3.3-.34-4.18-.67h0Z"></path></svg> 