<?xml version="1.0" encoding="UTF-8"?> <svg xmlns="http://www.w3.org/2000/svg" id="a" viewBox="0 0 525.33 525.33"><defs><style>.b,.c{fill:#fff;}.c,.d,.e{fill-rule:evenodd;}.d{fill:#003545;}.e{fill:#003647;}.f{fill:#97bf0d;}</style></defs><g><path class="c" d="M8.88,260.43C8.88,120.34,122.44,6.76,262.54,6.76s253.67,113.58,253.67,253.66-113.58,253.68-253.67,253.68S8.88,400.53,8.88,260.43Z"></path><rect class="f" x="169.57" y="33.3" width="90.72" height="93.22"></rect><g><path class="e" d="M251.69,0h21.95c77.38,4.77,133.15,35.64,174.61,77.08,41.43,41.46,72.3,97.25,77.08,174.63v21.92c-4.78,77.39-35.64,133.18-77.08,174.62-41.46,41.45-97.24,72.32-174.61,77.09h-21.95c-77.38-4.76-133.16-35.64-174.6-77.09C35.65,406.81,4.78,351.02,0,273.62v-21.92c.41-.13,.61-.44,.53-1.05C5.04,173.41,35.84,117.82,77.09,76.58,118.46,35.2,174.8,5.08,251.69,0Zm-50.04,61.76c-6.61,5.6-13.97,16.27-13.77,27.58,.23,13.71,11.45,25.69,27.05,25.04,14.98-.68,25.99-10.95,32.18-23.01,6.42-12.56,9.77-27.53,10.72-44.43-22.21,.93-43.25,3.89-56.17,14.81Zm146.53,53.12c-18.47,9.27-36.99,24.9-35.74,52.06,1.47,32.01,25.74,41.36,58.72,41.36,24.65,0,56.79-2.74,53.61,25.02-2.35,20.37-37.16,25.98-56.68,26.03-2.47-13.87-6.7-25.95-9.18-39.83-12.79,2.38-24.26,6.03-36.74,8.7,9.52,20.54-11.81,48.76-32.18,40.33-12.06-5-13.83-23.57-17.37-37.79-7.2-29.02-15.51-64.49-21.95-89.85-19.48,4.35-38.09,9.56-57.68,13.78,2.19,12.11,5.66,22.93,8.17,34.74,6.28-.53,10.73-2.9,16.83-3.58,3.7,16.77,8.29,33.21,12.27,49.52,1.3,5.4,3.92,12.57,3.57,17.36-.59,8.18-7.96,19.11-13.28,26.01-6.4,8.33-12.87,13.8-20.42,18.88-27.62,18.66-84.76,30.1-97.51-6.11,23.81-2.04,43.71-8.6,59.74-20.42,15.28-11.28,27.82-27.23,26.02-54.12-1.98-29.75-20.62-52.48-54.63-52.57-19.75-.04-35.84,6.76-49.02,14.82-26.32,16.09-42.75,46.62-37.76,88.8,6.46,54.66,41.81,91.88,106.69,82.71,42.12-5.95,77.06-24.31,95.48-53.61,4.76,4.07,7.79,8.19,12.75,11.24,19.17,11.74,46.86,6.15,63.3-6.12,5.1-3.79,7.67-8.83,12.25-11.24,.63,2.44,.11,6.03,2.57,6.62,32.3,.93,59.04-4.76,81.68-14.26,23.44-9.85,43.35-24.64,45.45-52.08,2.66-35.38-18.48-53.91-49.03-57.18-18.53-2.01-57.1,5.28-62.78-9.18-7.1-18.04,18.27-25,31.13-28.08,15.99-3.86,29.27-5.49,45.95-6.63-2.6-11.35-4.44-23.48-8.66-33.21-28.5,3.18-55.52,7.83-75.57,17.9Z"></path><path class="d" d="M90.38,259.35c-6.85-28.22,7.17-55.84,33.16-57.69,14.63-1.03,24.47,10.04,21.96,26.56-3.32,21.94-32.05,30.29-55.12,31.14Z"></path><path class="d" d="M422.2,338.47c-1.78-9.95-4.6-18.87-6.63-28.59,5.19-1.12,9.47-3.11,15.81-3.06,3.43,1.43,10.48,21.51,7.17,26.54-3.01,4.54-10.51,2.81-16.35,5.11Z"></path><path class="d" d="M184.83,396.68c-1.9-9.86-4.82-18.67-6.66-28.58,5.9-.5,11.57-5.22,16.85-2.57,3.3,1.65,8.67,22.96,5.62,26.54-4.15,4.92-9.56,1.66-15.81,4.61Z"></path></g></g><g><path class="b" d="M159.64,443.05c-5.16,1.27-7.99,.68-10.24-.58-2.37-1.34-4.19-3.46-5.31-7.98l-11.94-48.08c-1.12-4.53-.54-6.91,.74-9.15,1.35-2.36,3.86-4.36,9.02-5.63l2.83-.7c5.16-1.27,8.53-.7,10.85,.86,2.17,1.39,3.81,3.23,4.91,7.65l1.9,7.64-4.96,1.22-2-8.05c-1.05-4.23-4.26-6.32-10.23-4.86l-1.52,.37c-5.87,1.44-7.75,4.68-6.68,9l12.14,48.89c1.08,4.32,4.25,6.32,10.13,4.88l1.52-.37c5.87-1.44,7.88-4.6,6.78-9.03l-5.05-20.32-10.12,2.48-1.1-4.43,15.08-3.7,6.05,24.34c1.12,4.53,.51,7.24-.96,9.52-1.4,2.16-3.73,4.01-8.99,5.3l-2.83,.69Z"></path><path class="b" d="M214.68,429.01l-18.98-30.14-10.02,2.46,8.15,32.79-4.96,1.22-17.49-70.42,17.82-4.37c2.83-.7,6.07-.21,8.47,1.23,2.17,1.39,3.81,3.23,4.93,7.75l3.45,13.88c1.15,4.63,.53,7.34-.94,9.62-1.19,1.68-3.27,3.26-4.84,3.85l19.78,30.79-5.36,1.32Zm-17.15-58.65c-1.08-4.32-4.41-6.07-8.76-5l-11.34,2.78,7.15,28.77,11.34-2.78c4.35-1.07,6.49-4.15,5.41-8.48l-3.8-15.29Z"></path><path class="b" d="M230.78,425.07l-17.49-70.42,22.27-5.46,1.1,4.43-17.31,4.25,6.85,27.56,14.48-3.55,1.1,4.42-14.48,3.55,7.37,29.68,17.31-4.25,1.07,4.33-22.27,5.46Z"></path><path class="b" d="M264.39,416.82l-17.49-70.42,4.96-1.21,17.49,70.41-4.96,1.22Z"></path><path class="b" d="M294.98,409.85c-5.26,1.29-8.09,.7-10.34-.56-2.37-1.34-4.19-3.46-5.31-7.98l-1.87-7.54,4.96-1.22,1.97,7.95c1.07,4.33,4.36,6.3,10.13,4.88l1.62-.4c5.77-1.41,7.75-4.67,6.68-9l-2.45-9.86c-1.6-6.44-4.3-7.8-10.54-10.01l-7.3-2.59c-6.7-2.3-10.91-5.01-12.63-11.95l-2.1-8.45c-1.12-4.53-.54-6.91,.74-9.15,1.35-2.36,3.86-4.36,9.12-5.65l2.83-.7c4.76-1.17,7.92-.55,10.31,.88,2.17,1.39,3.81,3.23,4.93,7.76l1.9,7.64-4.96,1.22-2-8.05c-1.07-4.33-4.36-6.3-9.72-4.98l-1.62,.4c-5.87,1.44-7.75,4.68-6.68,9l1.77,7.14c1.75,7.04,4.5,8.18,10.03,10.13l7.38,2.46c6.37,2.28,11.31,4.91,13.06,11.95l2.77,11.16c1.12,4.53,.49,7.14-.99,9.42-1.37,2.26-3.6,4.08-8.87,5.38l-2.83,.69Z"></path><path class="b" d="M333.85,400.32c-5.26,1.29-8.09,.7-10.34-.56-2.37-1.34-4.19-3.45-5.31-7.98l-1.87-7.54,4.96-1.22,1.97,7.95c1.07,4.33,4.36,6.29,10.13,4.88l1.62-.4c5.77-1.42,7.75-4.67,6.68-9l-2.45-9.86c-1.6-6.44-4.3-7.8-10.54-10.01l-7.3-2.59c-6.7-2.31-10.91-5.01-12.63-11.95l-2.1-8.45c-1.12-4.53-.54-6.91,.74-9.15,1.35-2.36,3.86-4.36,9.12-5.65l2.83-.69c4.76-1.17,7.92-.55,10.31,.88,2.17,1.39,3.81,3.23,4.93,7.76l1.9,7.65-4.96,1.22-2-8.05c-1.07-4.33-4.36-6.3-9.72-4.98l-1.62,.4c-5.87,1.44-7.75,4.67-6.68,9l1.77,7.14c1.75,7.04,4.5,8.18,10.03,10.13l7.38,2.46c6.37,2.28,11.31,4.91,13.06,11.95l2.77,11.17c1.12,4.53,.48,7.14-.99,9.42-1.37,2.26-3.6,4.09-8.87,5.38l-2.83,.7Z"></path><path class="b" d="M362.07,392.86l-17.49-70.42,4.96-1.22,16.42,66.09,17.31-4.25,1.07,4.33-22.27,5.46Z"></path><path class="b" d="M392.95,385.29l-17.49-70.42,22.27-5.46,1.1,4.43-17.31,4.25,6.85,27.56,14.48-3.55,1.1,4.43-14.48,3.55,7.37,29.68,17.31-4.25,1.07,4.33-22.27,5.46Z"></path><path class="b" d="M452.37,370.71l-18.98-30.14-10.02,2.46,8.15,32.79-4.96,1.22-17.49-70.42,17.82-4.37c2.83-.69,6.07-.21,8.47,1.23,2.17,1.39,3.81,3.23,4.93,7.75l3.45,13.88c1.15,4.63,.53,7.34-.94,9.62-1.19,1.68-3.27,3.26-4.84,3.86l19.78,30.79-5.36,1.32Zm-17.15-58.65c-1.08-4.33-4.41-6.07-8.76-5l-11.34,2.78,7.15,28.77,11.34-2.78c4.35-1.07,6.49-4.15,5.41-8.48l-3.8-15.29Z"></path></g></svg> 