<?xml version="1.0" encoding="UTF-8"?> <svg xmlns="http://www.w3.org/2000/svg" width="290" height="82" viewBox="0 0 290 82" fill="none"><g clip-path="url(#clip0_11812_5581)"><path fill-rule="evenodd" clip-rule="evenodd" d="M190.32 38.1378C190.32 38.1378 158.159 4.32885 148.927 0.14248C148.594 -0.00870089 148.298 -0.0242636 147.985 0.0313176C144.406 1.18074 128.231 16.9347 124.174 19.7226C123.763 20.005 123.503 20.1762 123.032 19.9649C122.25 19.6159 117.748 15.823 111.256 10.2938C108.779 8.34181 107.166 6.67215 106.168 6.64548C105.428 6.64548 103.133 8.91763 100.162 11.9613C93.5457 18.7466 84.0052 29.6472 83.8941 29.7717C83.7319 29.9518 83.4764 29.6672 83.5719 29.7583C83.6675 29.8495 73.7381 19.5181 72.916 19.378C72.8027 19.3558 72.4161 19.3491 72.2917 19.4202C68.1569 21.7569 33.8118 62.9536 33.8118 62.9536L38.4977 65.8683C42.6725 59.9589 69.2234 23.3376 72.4361 21.708C72.6339 21.6079 72.7938 21.6546 72.9516 21.7435C74.0581 22.4172 78.9994 29.5382 81.1301 32.4818C82.3566 34.1782 82.9121 34.3449 83.6586 34.3471C83.983 34.3382 84.8028 34.167 85.2783 33.589C96.1786 20.3585 103.684 9.44899 106.057 9.14885C106.19 9.13107 106.679 8.98878 106.879 9.15552C113.382 14.518 119.841 23.0108 123.292 25.5875C123.574 25.7409 123.823 25.761 124.283 25.712C124.745 25.6631 126.298 23.8556 131.037 18.6599C136.067 13.144 144.044 4.29106 147.923 2.5836C151.838 0.860588 176.136 32.1995 177.913 34.5494L190.315 38.1355L190.32 38.1378ZM33.423 62.7069C31.9033 61.742 30.5502 60.577 29.3237 59.3498C32.1521 58.9585 34.034 58.5516 33.774 58.5005C30.9079 57.9202 28.6883 56.3084 26.8308 54.4897C29.8481 54.1096 32.001 53.6671 31.7477 53.6205C28.6549 52.9846 26.4376 50.957 24.6268 48.9316C24.629 48.925 24.6268 48.9272 24.6312 48.9205C27.1241 48.627 28.9593 48.2513 28.7549 48.2113C26.4842 47.7533 24.8334 46.2993 23.4803 44.8164C20.5164 41.5616 19.4321 37.035 19.3344 35.0786C19.3255 36.4748 19.0144 41.1258 15.5173 44.7719C14.1286 46.217 12.3712 47.5932 9.75606 48.4314C9.75606 48.4314 11.7713 48.7982 14.4241 49.0495C12.6022 50.9637 10.2849 52.7979 6.81435 53.9028C6.81435 53.9028 9.02285 54.2985 12.0512 54.6276C10.1627 56.3061 7.82751 57.8291 4.67473 58.8273C4.67473 58.8273 6.88101 59.2341 10.0093 59.5965C7.46313 61.8998 4.31035 63.9874 0 65.3525C0 65.3525 4.39034 72.896 11.8912 67.0822C12.8977 66.3063 16.2705 64.1253 19.4321 64.1253C23.4581 64.1253 26.402 66.1084 27.7529 67.0822C33.4563 71.2041 37.3467 67.7003 38.5021 65.8661L33.423 62.7069ZM238.771 59.2408V73.6519L241.304 73.623L243.824 73.5808L243.895 63.3583L243.966 53.1358L245.346 54.8544C248.634 58.9585 253.413 65.9017 257.044 71.8355L258.152 73.6519H262.536V44.8297H257.412L257.384 54.3719L257.341 63.9274L256.075 62.011C252.618 56.7708 246.328 48.4647 243.682 45.6679L242.899 44.8297H238.773V59.2408H238.771ZM227.247 59.2408V73.6519H232.37V44.8297H227.247V59.2408ZM177.158 59.2408V73.6519H196.51V69.2499H182.279V60.7304H194.09V56.4707H182.279V49.2295H195.512V44.8275H177.155V59.2386L177.158 59.2408ZM90.5974 44.9276C90.5396 44.9698 90.4974 51.4595 90.4974 59.3386V73.6497H109.992V69.2477H95.7609V60.7282H107.572V56.4684H95.7609V49.2273H108.994V44.8253H99.8446C94.8077 44.8253 90.6374 44.8675 90.5951 44.9253L90.5974 44.9276ZM206.899 44.6296C205.377 44.7141 203.013 44.9431 201.962 45.1277L201.065 45.2833V73.6519H206.33V62.7202H210.685L211.909 64.3965C213.873 67.0933 215.993 70.3882 217.302 72.7737L217.786 73.6541H220.661C222.254 73.6541 223.549 73.6252 223.549 73.583C223.549 73.4274 222.496 71.4242 221.656 69.9635C220.474 67.9048 218.697 65.2214 217.302 63.3761C216.662 62.5246 216.164 61.8153 216.191 61.7864C216.206 61.7575 216.775 61.4752 217.428 61.1484C220.288 59.7277 221.825 57.1576 221.839 53.8072C221.852 48.796 218.666 45.6568 212.718 44.8475C211.452 44.6786 208.379 44.5629 206.899 44.6341V44.6296ZM212.049 49.2873C214.098 49.6564 215.309 50.4079 215.962 51.7574C216.317 52.4666 216.36 52.7223 216.36 53.845C216.344 54.9677 216.302 55.2368 215.946 55.9615C215.049 57.7779 213.356 58.3893 208.788 58.5605L206.326 58.645V49.2451L206.652 49.1895C207.406 49.0472 211.036 49.1184 212.045 49.2896L212.049 49.2873ZM278.544 44.3606C270.732 45.4256 265.993 51.9997 266.662 60.8727C267.344 69.8324 272.865 74.6168 282.03 74.1632C284.379 74.0499 286.37 73.7653 288.391 73.2539L289.929 72.8715L289.971 65.9417L290 59.0274H284.876V69.3633L284.492 69.4477C284.263 69.5055 283.068 69.59 281.817 69.6323C279.982 69.6901 279.369 69.6612 278.615 69.4766C275.514 68.6963 273.421 66.5086 272.468 63.0737C272.196 62.0799 272.154 61.5819 272.154 59.1697C272.154 56.5574 272.183 56.3306 272.552 55.1234C273.092 53.3626 273.69 52.2976 274.787 51.1904C276.522 49.4163 278.615 48.7204 281.817 48.8471C283.852 48.9316 285.559 49.3162 287.209 50.0677C287.72 50.2945 288.176 50.4368 288.22 50.3656C288.349 50.1522 289.729 46.3616 289.687 46.3193C289.658 46.3037 289.245 46.077 288.762 45.8369C286.798 44.8586 283.654 44.2472 280.737 44.2761C279.771 44.2917 278.789 44.334 278.546 44.3606H278.544ZM74.1625 44.4162C70.3343 45.0543 67.6303 47.3687 66.9482 50.6057C66.2505 53.8428 67.2748 56.7108 69.7366 58.5294C70.8053 59.3097 71.9429 59.85 74.5602 60.8304C78.2751 62.2066 79.7259 63.1315 80.3947 64.5077C80.7924 65.3169 80.8213 66.6376 80.4658 67.518C79.7682 69.2365 77.3353 70.0169 73.7492 69.6767C71.914 69.5078 70.9186 69.2654 69.2945 68.5985C68.6257 68.3294 67.9858 68.0738 67.8725 68.0315C67.6725 67.9737 67.2881 68.8986 66.2083 72.0356C66.1372 72.2068 68.0436 73.0583 69.2967 73.4118C71.4452 74.0232 72.4695 74.1366 75.2734 74.1499C78.2751 74.1499 79.3149 74.0076 81.179 73.2984C83.6275 72.3891 85.2628 70.6438 85.876 68.3005C86.1315 67.3357 86.1604 64.9079 85.9337 63.8274C85.5494 61.9821 84.2118 60.1501 82.461 59.0274C81.379 58.3604 80.5836 57.9913 77.9085 56.9398C73.4115 55.1789 72.245 54.1718 72.2317 52.0553C72.2317 51.246 72.2895 51.0037 72.6583 50.4212C73.8959 48.4203 77.9663 48.1201 82.0078 49.7387C82.7054 50.0232 83.2875 50.2211 83.3031 50.1922C83.3609 50.1211 84.8117 46.2593 84.8117 46.1748C84.8117 45.8613 81.7523 44.7986 79.8748 44.4718C78.5506 44.245 75.4067 44.2161 74.1692 44.414L74.1625 44.4162ZM121.376 43.8204C117.848 44.3184 115.2 46.7039 114.162 50.2945C113.935 51.0615 113.907 52.2243 113.864 62.3778L113.822 73.5941L116.071 73.7631C117.308 73.8631 118.432 73.9342 118.561 73.9342C118.788 73.9342 118.804 73.1828 118.846 63.0292C118.874 55.7696 118.992 51.8789 119.201 51.3572C120.325 48.5892 123.996 47.8778 125.96 50.0521C127.071 51.2727 126.984 50.3211 127.071 63.5695L127.142 75.4105L127.853 75.6084C128.606 75.8084 131.61 76.7155 131.979 76.8578C132.163 76.9423 132.192 75.6373 132.192 64.6744C132.192 51.1304 132.163 51.5417 133.09 50.3345C133.83 49.3696 134.698 48.9161 135.949 48.8294C137.871 48.716 139.093 49.3829 139.904 51.0437L140.373 51.9953L140.444 66.3485L140.515 80.7174L141.724 81.3554L142.933 81.9957L144.186 81.371L145.423 80.7463V66.8599C145.423 56.2105 145.465 52.789 145.608 52.122C146.076 49.8921 147.643 48.6871 149.891 48.8271C151.513 48.9405 152.609 49.6786 153.277 51.1415L153.604 51.8507L153.646 64.3876C153.675 76.2153 153.688 76.9401 153.931 76.84C154.444 76.6422 157.885 75.6328 158.328 75.5483L158.796 75.4638L158.825 63.6517L158.868 51.853L159.194 51.1438C159.863 49.6809 160.958 48.9427 162.58 48.8294C164.829 48.6871 166.393 49.8943 166.864 52.1242C166.993 52.7778 167.048 55.5591 167.048 63.4539C167.048 73.3362 167.062 73.932 167.304 73.932C167.433 73.932 168.557 73.8609 169.795 73.7608L172.027 73.5919V62.758C172.027 54.7306 171.714 50.0403 171.088 48.6871C169.992 46.3015 168.057 44.6697 165.58 44.016C164.469 43.7181 161.467 43.6892 160.358 43.9582C159.163 44.2561 157.954 44.8386 157.057 45.5767L156.23 46.2437L155.419 45.5767C153.797 44.2695 152.175 43.7737 149.543 43.7737C146.939 43.7893 145.274 44.3139 143.652 45.6479L142.955 46.2304L142.157 45.6057C140.406 44.2428 138.927 43.787 136.309 43.7737C133.676 43.7737 132.026 44.285 130.375 45.6345L129.606 46.2593L128.979 45.7057C128.169 44.9965 126.915 44.3428 125.836 44.0583C124.796 43.7893 122.45 43.6603 121.368 43.8159L121.376 43.8204Z" fill="white"></path></g><defs><clipPath id="clip0_11812_5581"><rect width="290" height="82" fill="white"></rect></clipPath></defs></svg> 