<?xml version="1.0" encoding="UTF-8"?> <svg xmlns="http://www.w3.org/2000/svg" id="Ebene_2" viewBox="0 0 1305.23 368.83"><defs><style>.cls-1{fill:#75abd6;fill-rule:evenodd;stroke-width:0px;}</style></defs><g id="Ebene_1-2"><path class="cls-1" d="M856.59,171.54S711.84,19.47,670.29.64c-1.5-.68-2.83-.75-4.24-.5-16.11,5.17-88.91,76.03-107.17,88.57-1.85,1.27-3.02,2.04-5.14,1.09-3.52-1.57-23.78-18.63-53-43.5-11.15-8.78-18.41-16.29-22.9-16.41-3.33,0-13.66,10.22-27.03,23.91-29.78,30.52-72.72,79.55-73.22,80.11-.73.81-1.88-.47-1.45-.06.43.41-44.26-46.06-47.96-46.69-.51-.1-2.25-.13-2.81.19-18.61,10.51-173.19,195.81-173.19,195.81l21.09,13.11c18.79-26.58,138.29-191.3,152.75-198.63.89-.45,1.61-.24,2.32.16,4.98,3.03,27.22,35.06,36.81,48.3,5.52,7.63,8.02,8.38,11.38,8.39,1.46-.04,5.15-.81,7.29-3.41,49.06-59.51,82.84-108.58,93.52-109.93.6-.08,2.8-.72,3.7.03,29.27,24.12,58.34,62.32,73.87,73.91,1.27.69,2.39.78,4.46.56,2.08-.22,9.07-8.35,30.4-31.72,22.64-24.81,58.54-64.63,76-72.31,17.62-7.75,126.98,133.21,134.98,143.78l55.82,16.13ZM150.43,282.05c-6.84-4.34-12.93-9.58-18.45-15.1,12.73-1.76,21.2-3.59,20.03-3.82-12.9-2.61-22.89-9.86-31.25-18.04,13.58-1.71,23.27-3.7,22.13-3.91-13.92-2.86-23.9-11.98-32.05-21.09.01-.03,0-.02.02-.05,11.22-1.32,19.48-3.01,18.56-3.19-10.22-2.06-17.65-8.6-23.74-15.27-13.34-14.64-18.22-35-18.66-43.8-.04,6.28-1.44,27.2-17.18,43.6-6.25,6.5-14.16,12.69-25.93,16.46,0,0,9.07,1.65,21.01,2.78,0,0,0,0,0,0-8.2,8.61-18.63,16.86-34.25,21.83,0,0,9.94,1.78,23.57,3.26-8.5,7.55-19.01,14.4-33.2,18.89,0,0,9.93,1.83,24.01,3.46-11.46,10.36-25.65,19.75-45.05,25.89,0,0,19.76,33.93,53.52,7.78,4.53-3.49,19.71-13.3,33.94-13.3,18.12,0,31.37,8.92,37.45,13.3,25.67,18.54,43.18,2.78,48.38-5.47l-22.86-14.21ZM1074.66,266.46v64.82l11.4-.13,11.34-.19.32-45.98.32-45.98,6.21,7.73c14.8,18.46,36.31,49.69,52.65,76.38l4.99,8.17h19.73v-129.64h-23.06l-.13,42.92-.19,42.98-5.7-8.62c-15.56-23.57-43.87-60.93-55.78-73.51l-3.52-3.77h-18.57v64.82ZM1022.79,266.46v64.82h23.06v-129.64h-23.06v64.82ZM797.35,266.46v64.82h87.1v-19.8h-64.05v-38.32h53.16v-19.16h-53.16v-32.57h59.56v-19.8h-82.62v64.82ZM407.76,202.08c-.26.19-.45,29.38-.45,64.82v64.37h87.74v-19.8h-64.05v-38.32h53.16v-19.16h-53.16v-32.57h59.56v-19.8h-41.18c-22.67,0-41.44.19-41.63.45ZM931.21,200.74c-6.85.38-17.49,1.41-22.22,2.24l-4.04.7v127.6h23.7v-49.17h19.6l5.51,7.54c8.84,12.13,18.38,26.95,24.27,37.68l2.18,3.96h12.94c7.17,0,13-.13,13-.32,0-.7-4.74-9.71-8.52-16.28-5.32-9.26-13.32-21.33-19.6-29.63-2.88-3.83-5.12-7.02-5-7.15.07-.13,2.63-1.4,5.57-2.87,12.87-6.39,19.79-17.95,19.85-33.02.06-22.54-14.28-36.66-41.05-40.3-5.7-.76-19.53-1.28-26.19-.96ZM954.39,221.69c9.22,1.66,14.67,5.04,17.61,11.11,1.6,3.19,1.79,4.34,1.79,9.39-.07,5.05-.26,6.26-1.86,9.52-4.04,8.17-11.66,10.92-32.22,11.69l-11.08.38v-42.28l1.47-.25c3.39-.64,19.73-.32,24.27.45ZM1253.67,199.53c-35.16,4.79-56.49,34.36-53.48,74.27,3.07,40.3,27.92,61.82,69.17,59.78,10.57-.51,19.53-1.79,28.63-4.09l6.92-1.72.19-31.17.13-31.1h-23.06v46.49l-1.73.38c-1.03.26-6.41.64-12.04.83-8.26.26-11.02.13-14.41-.7-13.96-3.51-23.38-13.35-27.67-28.8-1.22-4.47-1.41-6.71-1.41-17.56,0-11.75.13-12.77,1.79-18.2,2.43-7.92,5.12-12.71,10.06-17.69,7.81-7.98,17.23-11.11,31.64-10.54,9.16.38,16.84,2.11,24.27,5.49,2.3,1.02,4.35,1.66,4.55,1.34.58-.96,6.79-18.01,6.6-18.2-.13-.07-1.99-1.09-4.16-2.17-8.84-4.4-22.99-7.15-36.12-7.02-4.35.07-8.77.26-9.86.38ZM333.79,199.78c-17.23,2.87-29.4,13.28-32.47,27.84-3.14,14.56,1.47,27.46,12.55,35.64,4.81,3.51,9.93,5.94,21.71,10.35,16.72,6.19,23.25,10.35,26.26,16.54,1.79,3.64,1.92,9.58.32,13.54-3.14,7.73-14.09,11.24-30.23,9.71-8.26-.76-12.74-1.85-20.05-4.85-3.01-1.21-5.89-2.36-6.4-2.55-.9-.26-2.63,3.9-7.49,18.01-.32.77,8.26,4.6,13.9,6.19,9.67,2.75,14.28,3.26,26.9,3.32,13.51,0,18.19-.64,26.58-3.83,11.02-4.09,18.38-11.94,21.14-22.48,1.15-4.34,1.28-15.26.26-20.12-1.73-8.3-7.75-16.54-15.63-21.59-4.87-3-8.45-4.66-20.49-9.39-20.24-7.92-25.49-12.45-25.55-21.97,0-3.64.26-4.73,1.92-7.35,5.57-9,23.89-10.35,42.08-3.07,3.14,1.28,5.76,2.17,5.83,2.04.26-.32,6.79-17.69,6.79-18.07,0-1.41-13.77-6.19-22.22-7.66-5.96-1.02-20.11-1.15-25.68-.26ZM546.29,197.1c-15.88,2.24-27.8,12.97-32.47,29.12-1.02,3.45-1.15,8.68-1.34,54.35l-.19,50.45,10.12.76c5.57.45,10.63.77,11.21.77,1.02,0,1.09-3.38,1.28-49.05q.19-48.98,1.6-52.5c5.06-12.45,21.58-15.65,30.42-5.87,5,5.49,4.61,1.21,5,60.8l.32,53.26,3.2.89c3.39.9,16.91,4.98,18.57,5.62.83.38.96-5.49.96-54.8,0-60.92-.13-59.07,4.04-64.5,3.33-4.34,7.24-6.38,12.87-6.77,8.65-.51,14.15,2.49,17.8,9.96l2.11,4.28.32,64.56.32,64.63,5.44,2.87,5.44,2.88,5.64-2.81,5.57-2.81v-62.46c0-47.9.19-63.29.83-66.29,2.11-10.03,9.16-15.45,19.28-14.82,7.3.51,12.23,3.83,15.24,10.41l1.47,3.19.19,56.39c.13,53.2.19,56.46,1.28,56.01,2.31-.89,17.8-5.43,19.79-5.81l2.11-.38.13-53.13.19-53.07,1.47-3.19c3.01-6.58,7.94-9.9,15.24-10.41,10.12-.64,17.16,4.79,19.28,14.82.58,2.94.83,15.45.83,50.96,0,44.45.06,47.13,1.15,47.13.58,0,5.64-.32,11.21-.77l10.05-.76v-48.73q0-54.16-4.23-63.29c-4.93-10.73-13.64-18.07-24.79-21.01-5-1.34-18.51-1.47-23.5-.26-5.38,1.34-10.82,3.96-14.86,7.28l-3.72,3-3.65-3c-7.3-5.88-14.6-8.11-26.45-8.11-11.72.07-19.21,2.43-26.51,8.43l-3.14,2.62-3.59-2.81c-7.88-6.13-14.54-8.18-26.32-8.24-11.85,0-19.28,2.3-26.71,8.37l-3.46,2.81-2.82-2.49c-3.65-3.19-9.29-6.13-14.15-7.41-4.68-1.21-15.24-1.79-20.11-1.09Z"></path></g></svg> 