<?xml version="1.0" encoding="UTF-8"?> <svg xmlns="http://www.w3.org/2000/svg" width="91" height="20" viewBox="0 0 91 20" fill="none"><g clip-path="url(#clip0_11849_7738)"><path d="M82.0617 4.79231C80.8911 2.88314 78.1172 2.88314 76.9466 4.79231L68.0078 19.3711H91.0005L82.0617 4.79231Z" fill="#74ABD7"></path><g opacity="0.7"><mask id="mask0_11849_7738" style="mask-type:luminance" maskUnits="userSpaceOnUse" x="33" y="-1" width="25" height="21"><path d="M57.9537 -0.00390625H33.6836V19.9961H57.9537V-0.00390625Z" fill="white"></path></mask><g mask="url(#mask0_11849_7738)"><path d="M48.3781 4.79231C47.2075 2.88314 44.4336 2.88314 43.263 4.79231L34.3242 19.3711H57.3169L48.3781 4.79231Z" fill="#74ABD7"></path></g></g><g opacity="0.4"><mask id="mask1_11849_7738" style="mask-type:luminance" maskUnits="userSpaceOnUse" x="0" y="-1" width="25" height="21"><path d="M24.2701 -0.00390625H0V19.9961H24.2701V-0.00390625Z" fill="white"></path></mask><g mask="url(#mask1_11849_7738)"><path d="M14.6945 4.79231C13.5239 2.88314 10.75 2.88314 9.57944 4.79231L0.640625 19.3711H23.6333L14.6945 4.79231Z" fill="#74ABD7"></path></g></g></g><defs><clipPath id="clip0_11849_7738"><rect width="91" height="20" fill="white" transform="translate(0 -0.00390625)"></rect></clipPath></defs></svg> 